<?xml version="1.0" encoding="utf-8"?>
<!-- Generator: Adobe Illustrator 15.0.0, SVG Export Plug-In . SVG Version: 6.00 Build 0)  -->
<!DOCTYPE svg PUBLIC "-//W3C//DTD SVG 1.1//EN" "http://www.w3.org/Graphics/SVG/1.1/DTD/svg11.dtd">
<svg version="1.1" id="Layer_1" xmlns="http://www.w3.org/2000/svg" xmlns:xlink="http://www.w3.org/1999/xlink" x="0px" y="0px"
	 width="240px" height="63px" viewBox="0 0 240 63" enable-background="new 0 0 240 63" xml:space="preserve">
<g>
	<path fill="#D12060" d="M20.695,47.861h8.453v8.514h-4.388v-1.57c-0.262,0.242-0.463,0.424-1.006,0.766
		c-0.765,0.463-2.214,1.228-5.031,1.228c-4.227,0-8.111-2.375-8.111-7.347c0-0.503,0.041-1.025,0.141-1.529
		c0.262-1.408,0.966-2.979,2.496-4.246c1.993-1.65,4.629-2.154,7.226-2.154c1.107,0,2.234,0.121,3.321,0.342
		c1.73,0.383,3.019,1.007,4.105,2.255c0.443,0.503,0.584,0.845,0.805,1.308l-5.032,0.523c-0.926-0.966-2.033-1.228-3.12-1.228
		c-3.361,0-4.709,2.476-4.709,4.589c0,2.898,2.093,4.246,4.408,4.246c2.013,0,3.824-1.086,4.146-2.475h-3.703V47.861z"/>
	<path fill="#D12060" d="M38.686,42.166v14.209h-5.092V42.166H38.686z"/>
	<path fill="#D12060" d="M42.066,42.166h5.333l2.274,5.574c0.583,1.43,0.705,1.752,1.188,3.201c0.443-1.229,0.583-1.611,1.147-3
		c0.765-1.911,1.57-3.844,2.375-5.775h5.333l-6.48,14.209h-4.73L42.066,42.166z"/>
	<path fill="#D12060" d="M67.02,42.166v14.209h-5.092V42.166H67.02z"/>
	<path fill="#D12060" d="M72.795,42.166h4.206l4.367,4.79c1.248,1.349,1.51,1.671,2.517,2.979c-0.081-1.952-0.101-2.637-0.101-4.548
		v-3.221h5.011v14.209h-4.227l-5.213-5.877c-0.724-0.846-0.966-1.146-1.609-1.952c0.061,2.456,0.061,2.999,0.08,4.81v3.02h-5.031
		V42.166z"/>
	<path fill="#D12060" d="M102.338,47.861h8.453v8.514h-4.388v-1.57c-0.262,0.242-0.463,0.424-1.006,0.766
		c-0.766,0.463-2.214,1.228-5.032,1.228c-4.227,0-8.11-2.375-8.11-7.347c0-0.503,0.04-1.025,0.141-1.529
		c0.262-1.408,0.966-2.979,2.496-4.246c1.992-1.65,4.629-2.154,7.225-2.154c1.107,0,2.234,0.121,3.321,0.342
		c1.73,0.383,3.019,1.007,4.105,2.255c0.443,0.503,0.584,0.845,0.806,1.308l-5.032,0.523c-0.926-0.966-2.032-1.228-3.119-1.228
		c-3.361,0-4.71,2.476-4.71,4.589c0,2.898,2.093,4.246,4.408,4.246c2.012,0,3.823-1.086,4.146-2.475h-3.703V47.861z"/>
</g>
<g>
	<path fill="#D12060" d="M15.459,8.38c2.112,0,3.809,0.104,4.882,1.448c0.796,1,0.866,2.241,0.866,3.999v2.758
		c0,1.241,0,2.895-1.489,4.033c-1.351,1.068-3.254,1.068-3.843,1.068h-2.493v11.1h-1.731V8.38H15.459z M13.347,9.828v10.41h2.735
		c3.289,0,3.462-2.068,3.462-3.653v-2.103c0-3.757-0.45-4.653-3.601-4.653H13.347z"/>
	<path fill="#D12060" d="M24.84,8.415h4.709c1.87,0,4.847,0.276,4.847,4.24v3.792c0,1,0,3.654-3.428,4.309L35.47,32.75h-1.8
		l-4.466-11.857h-2.666V32.75H24.84V8.415z M26.537,9.862v9.583h3.082c1.904,0,2.977-0.758,2.977-2.585v-3.757
		c0-2.792-1.211-3.24-2.874-3.24H26.537z"/>
	<path fill="#D12060" d="M39.346,13.826c0-1.896,0.312-2.999,0.866-3.792c0.935-1.344,2.493-1.896,4.189-1.896
		c1.558,0,3.082,0.517,3.947,1.792c0.866,1.275,0.866,2.93,0.866,4.412v13.409c0,1-0.104,2.31-0.796,3.344
		c-0.588,0.896-1.904,1.965-4.189,1.965c-4.882,0-4.882-3.999-4.882-5.516V13.826z M47.586,15.274c0-1.861-0.035-3.757-1.004-4.757
		c-0.554-0.551-1.419-0.862-2.285-0.862c-0.935,0-1.766,0.311-2.319,0.862c-1.004,0.965-1.004,2.482-1.004,2.964V26.89
		c0,2.31,0.277,3.309,1.316,4.067c0.554,0.379,1.246,0.586,2.008,0.586c0.624,0,1.177-0.138,1.627-0.414
		c1.489-0.827,1.662-2.378,1.662-3.999V15.274z"/>
	<path fill="#D12060" d="M55.624,8.415h8.655v1.517H57.32v9.375h6.128v1.482H57.32V32.75h-1.696V8.415z"/>
	<path fill="#D12060" d="M71.569,8.415V32.75h-1.766V8.415H71.569z"/>
	<path fill="#D12060" d="M78.942,8.415h1.696v22.819h6.371v1.517h-8.067V8.415z"/>
	<path fill="#D12060" d="M90.332,8.415h8.655v1.517h-6.959v9.375h5.713v1.482h-5.748v10.444h6.96v1.517h-8.621V8.415z"/>
	<path fill="#D12060" d="M104.178,26.718c0,1.827,0,2.827,0.728,3.757c0.796,1,2.111,1.137,2.839,1.137
		c2.424,0,3.15-1.448,3.15-3.964c0-2.757-0.762-3.792-3.566-6.549c-2.734-2.723-4.258-4.24-4.258-7.652
		c0-2.034,0.312-5.377,4.604-5.377c4.57,0,4.57,3.309,4.57,5.619v1.758h-1.662v-2.171c0-1.482,0-3.757-2.874-3.757
		c-2.216,0-2.942,1.275-2.942,3.654s0.484,3.378,4.154,7.101c2.527,2.585,3.67,3.757,3.67,7.066c0,2.31-0.312,5.791-4.985,5.791
		c-2.839,0-5.124-1.447-5.124-4.929v-3.413h1.696V26.718z"/>
</g>
<g>
	<circle fill="#D12060" cx="12.013" cy="35.078" r="0.609"/>
	<circle fill="#D12060" cx="13.883" cy="35.078" r="0.609"/>
	<circle fill="#D12060" cx="15.751" cy="35.078" r="0.61"/>
	<circle fill="#D12060" cx="17.621" cy="35.078" r="0.61"/>
	<circle fill="#D12060" cx="19.489" cy="35.078" r="0.609"/>
	<circle fill="#D12060" cx="21.359" cy="35.078" r="0.609"/>
	<circle fill="#D12060" cx="23.227" cy="35.078" r="0.61"/>
	<circle fill="#D12060" cx="25.096" cy="35.078" r="0.609"/>
	<circle fill="#D12060" cx="26.965" cy="35.078" r="0.609"/>
	<circle fill="#D12060" cx="28.835" cy="35.078" r="0.609"/>
	<circle fill="#D12060" cx="30.703" cy="35.078" r="0.61"/>
	<circle fill="#D12060" cx="32.572" cy="35.078" r="0.609"/>
	<circle fill="#D12060" cx="34.441" cy="35.078" r="0.61"/>
	<circle fill="#D12060" cx="36.31" cy="35.078" r="0.609"/>
	<circle fill="#D12060" cx="38.179" cy="35.078" r="0.61"/>
	<circle fill="#D12060" cx="40.048" cy="35.078" r="0.609"/>
	<circle fill="#D12060" cx="41.917" cy="35.078" r="0.609"/>
	<circle fill="#D12060" cx="43.785" cy="35.078" r="0.61"/>
	<circle fill="#D12060" cx="45.654" cy="35.078" r="0.61"/>
	<circle fill="#D12060" cx="47.524" cy="35.078" r="0.61"/>
	<circle fill="#D12060" cx="49.393" cy="35.078" r="0.609"/>
	<circle fill="#D12060" cx="51.262" cy="35.078" r="0.61"/>
	<circle fill="#D12060" cx="53.131" cy="35.078" r="0.609"/>
	<circle fill="#D12060" cx="54.999" cy="35.078" r="0.609"/>
	<circle fill="#D12060" cx="56.869" cy="35.078" r="0.609"/>
	<circle fill="#D12060" cx="58.738" cy="35.078" r="0.61"/>
	<circle fill="#D12060" cx="69.951" cy="35.078" r="0.609"/>
	<circle fill="#D12060" cx="71.82" cy="35.078" r="0.609"/>
	<circle fill="#D12060" cx="73.689" cy="35.078" r="0.609"/>
	<path fill="#D12060" d="M76.169,35.078c0,0.336-0.273,0.608-0.611,0.608c-0.334,0-0.609-0.272-0.609-0.608
		c0-0.338,0.275-0.61,0.609-0.61C75.896,34.468,76.169,34.74,76.169,35.078z"/>
	<circle fill="#D12060" cx="77.426" cy="35.078" r="0.608"/>
	<path fill="#D12060" d="M79.906,35.078c0,0.336-0.271,0.608-0.607,0.608c-0.34,0-0.611-0.272-0.611-0.608
		c0-0.338,0.271-0.61,0.611-0.61C79.634,34.468,79.906,34.74,79.906,35.078z"/>
	<path fill="#D12060" d="M81.775,35.078c0,0.336-0.271,0.608-0.611,0.608c-0.336,0-0.607-0.272-0.607-0.608
		c0-0.338,0.271-0.61,0.607-0.61C81.503,34.468,81.775,34.74,81.775,35.078z"/>
	<circle fill="#D12060" cx="83.034" cy="35.078" r="0.61"/>
	<circle fill="#D12060" cx="84.903" cy="35.078" r="0.61"/>
	<circle fill="#D12060" cx="86.773" cy="35.078" r="0.609"/>
	<circle fill="#D12060" cx="88.641" cy="35.078" r="0.61"/>
	<circle fill="#D12060" cx="90.511" cy="35.078" r="0.609"/>
	<path fill="#D12060" d="M92.988,35.078c0,0.336-0.271,0.608-0.607,0.608c-0.34,0-0.611-0.272-0.611-0.608
		c0-0.338,0.271-0.61,0.611-0.61C92.716,34.468,92.988,34.74,92.988,35.078z"/>
	<circle fill="#D12060" cx="94.249" cy="35.078" r="0.608"/>
	<circle fill="#D12060" cx="96.116" cy="35.078" r="0.61"/>
	<circle fill="#D12060" cx="97.986" cy="35.078" r="0.609"/>
	<circle fill="#D12060" cx="99.855" cy="35.078" r="0.609"/>
	<circle fill="#D12060" cx="101.724" cy="35.078" r="0.609"/>
	<circle fill="#D12060" cx="103.593" cy="35.078" r="0.609"/>
	<circle fill="#D12060" cx="105.461" cy="35.078" r="0.608"/>
	<circle fill="#D12060" cx="107.331" cy="35.078" r="0.608"/>
	<circle fill="#D12060" cx="109.2" cy="35.078" r="0.608"/>
	<circle fill="#D12060" cx="111.068" cy="35.078" r="0.609"/>
</g>
<g>
	<circle fill="#D12060" cx="12.013" cy="37.052" r="0.609"/>
	<circle fill="#D12060" cx="13.883" cy="37.052" r="0.609"/>
	<circle fill="#D12060" cx="15.751" cy="37.052" r="0.61"/>
	<circle fill="#D12060" cx="17.621" cy="37.052" r="0.61"/>
	<circle fill="#D12060" cx="19.489" cy="37.052" r="0.609"/>
	<circle fill="#D12060" cx="21.359" cy="37.052" r="0.609"/>
	<circle fill="#D12060" cx="23.227" cy="37.052" r="0.61"/>
	<circle fill="#D12060" cx="25.096" cy="37.052" r="0.609"/>
	<circle fill="#D12060" cx="26.965" cy="37.052" r="0.609"/>
	<circle fill="#D12060" cx="28.835" cy="37.052" r="0.609"/>
	<circle fill="#D12060" cx="30.703" cy="37.052" r="0.61"/>
	<circle fill="#D12060" cx="32.572" cy="37.052" r="0.609"/>
	<circle fill="#D12060" cx="34.441" cy="37.052" r="0.61"/>
	<circle fill="#D12060" cx="36.31" cy="37.052" r="0.609"/>
	<circle fill="#D12060" cx="38.179" cy="37.052" r="0.61"/>
	<circle fill="#D12060" cx="40.048" cy="37.052" r="0.609"/>
	<circle fill="#D12060" cx="41.917" cy="37.052" r="0.609"/>
	<circle fill="#D12060" cx="43.785" cy="37.052" r="0.61"/>
	<circle fill="#D12060" cx="45.654" cy="37.052" r="0.61"/>
	<circle fill="#D12060" cx="47.524" cy="37.052" r="0.61"/>
	<circle fill="#D12060" cx="49.393" cy="37.052" r="0.609"/>
	<circle fill="#D12060" cx="51.262" cy="37.052" r="0.61"/>
	<circle fill="#D12060" cx="53.131" cy="37.052" r="0.609"/>
	<circle fill="#D12060" cx="54.999" cy="37.052" r="0.609"/>
	<circle fill="#D12060" cx="56.869" cy="37.052" r="0.609"/>
	<circle fill="#D12060" cx="58.738" cy="37.052" r="0.61"/>
	<circle fill="#D12060" cx="69.951" cy="37.052" r="0.609"/>
	<circle fill="#D12060" cx="71.82" cy="37.052" r="0.609"/>
	<circle fill="#D12060" cx="73.689" cy="37.052" r="0.609"/>
	<path fill="#D12060" d="M76.169,37.052c0,0.337-0.273,0.609-0.611,0.609c-0.334,0-0.609-0.272-0.609-0.609s0.275-0.608,0.609-0.608
		C75.896,36.443,76.169,36.715,76.169,37.052z"/>
	<circle fill="#D12060" cx="77.426" cy="37.052" r="0.608"/>
	<path fill="#D12060" d="M79.906,37.052c0,0.337-0.271,0.609-0.607,0.609c-0.34,0-0.611-0.272-0.611-0.609s0.271-0.608,0.611-0.608
		C79.634,36.443,79.906,36.715,79.906,37.052z"/>
	<path fill="#D12060" d="M81.775,37.052c0,0.337-0.271,0.609-0.611,0.609c-0.336,0-0.607-0.272-0.607-0.609s0.271-0.608,0.607-0.608
		C81.503,36.443,81.775,36.715,81.775,37.052z"/>
	<circle fill="#D12060" cx="83.034" cy="37.052" r="0.61"/>
	<circle fill="#D12060" cx="84.903" cy="37.052" r="0.61"/>
	<circle fill="#D12060" cx="86.773" cy="37.052" r="0.609"/>
	<circle fill="#D12060" cx="88.641" cy="37.052" r="0.61"/>
	<circle fill="#D12060" cx="90.511" cy="37.052" r="0.609"/>
	<path fill="#D12060" d="M92.988,37.052c0,0.337-0.271,0.609-0.607,0.609c-0.34,0-0.611-0.272-0.611-0.609s0.271-0.608,0.611-0.608
		C92.716,36.443,92.988,36.715,92.988,37.052z"/>
	<circle fill="#D12060" cx="94.249" cy="37.052" r="0.608"/>
	<circle fill="#D12060" cx="96.116" cy="37.052" r="0.61"/>
	<circle fill="#D12060" cx="97.986" cy="37.052" r="0.609"/>
	<circle fill="#D12060" cx="99.855" cy="37.052" r="0.609"/>
	<circle fill="#D12060" cx="101.724" cy="37.052" r="0.609"/>
	<circle fill="#D12060" cx="103.593" cy="37.052" r="0.609"/>
	<circle fill="#D12060" cx="105.461" cy="37.052" r="0.608"/>
	<circle fill="#D12060" cx="107.331" cy="37.052" r="0.608"/>
	<circle fill="#D12060" cx="109.2" cy="37.052" r="0.608"/>
	<circle fill="#D12060" cx="111.068" cy="37.052" r="0.609"/>
</g>
<g>
	<circle fill="#D12060" cx="12.013" cy="39.027" r="0.609"/>
	<circle fill="#D12060" cx="13.883" cy="39.027" r="0.609"/>
	<circle fill="#D12060" cx="15.751" cy="39.027" r="0.61"/>
	<circle fill="#D12060" cx="17.621" cy="39.027" r="0.61"/>
	<circle fill="#D12060" cx="19.489" cy="39.027" r="0.609"/>
	<circle fill="#D12060" cx="21.359" cy="39.027" r="0.609"/>
	<circle fill="#D12060" cx="23.227" cy="39.027" r="0.61"/>
	<circle fill="#D12060" cx="25.096" cy="39.027" r="0.609"/>
	<circle fill="#D12060" cx="26.965" cy="39.027" r="0.609"/>
	<circle fill="#D12060" cx="28.835" cy="39.027" r="0.609"/>
	<circle fill="#D12060" cx="30.703" cy="39.027" r="0.61"/>
	<circle fill="#D12060" cx="32.572" cy="39.027" r="0.609"/>
	<circle fill="#D12060" cx="34.441" cy="39.027" r="0.61"/>
	<circle fill="#D12060" cx="36.31" cy="39.027" r="0.609"/>
	<circle fill="#D12060" cx="38.179" cy="39.027" r="0.61"/>
	<circle fill="#D12060" cx="40.048" cy="39.027" r="0.609"/>
	<circle fill="#D12060" cx="41.917" cy="39.027" r="0.609"/>
	<circle fill="#D12060" cx="43.785" cy="39.027" r="0.61"/>
	<circle fill="#D12060" cx="45.654" cy="39.027" r="0.61"/>
	<circle fill="#D12060" cx="47.524" cy="39.027" r="0.61"/>
	<circle fill="#D12060" cx="49.393" cy="39.027" r="0.609"/>
	<circle fill="#D12060" cx="51.262" cy="39.027" r="0.61"/>
	<circle fill="#D12060" cx="53.131" cy="39.027" r="0.609"/>
	<circle fill="#D12060" cx="54.999" cy="39.027" r="0.609"/>
	<circle fill="#D12060" cx="56.869" cy="39.027" r="0.609"/>
	<circle fill="#D12060" cx="58.738" cy="39.027" r="0.61"/>
	<circle fill="#D12060" cx="69.951" cy="39.027" r="0.609"/>
	<circle fill="#D12060" cx="71.82" cy="39.027" r="0.609"/>
	<circle fill="#D12060" cx="73.689" cy="39.027" r="0.609"/>
	<path fill="#D12060" d="M76.169,39.027c0,0.336-0.273,0.609-0.611,0.609c-0.334,0-0.609-0.273-0.609-0.609s0.275-0.61,0.609-0.61
		C75.896,38.417,76.169,38.691,76.169,39.027z"/>
	<circle fill="#D12060" cx="77.426" cy="39.027" r="0.608"/>
	<path fill="#D12060" d="M79.906,39.027c0,0.336-0.271,0.609-0.607,0.609c-0.34,0-0.611-0.273-0.611-0.609s0.271-0.61,0.611-0.61
		C79.634,38.417,79.906,38.691,79.906,39.027z"/>
	<path fill="#D12060" d="M81.775,39.027c0,0.336-0.271,0.609-0.611,0.609c-0.336,0-0.607-0.273-0.607-0.609s0.271-0.61,0.607-0.61
		C81.503,38.417,81.775,38.691,81.775,39.027z"/>
	<circle fill="#D12060" cx="83.034" cy="39.027" r="0.61"/>
	<circle fill="#D12060" cx="84.903" cy="39.027" r="0.61"/>
	<circle fill="#D12060" cx="86.773" cy="39.027" r="0.609"/>
	<circle fill="#D12060" cx="88.641" cy="39.027" r="0.61"/>
	<circle fill="#D12060" cx="90.511" cy="39.027" r="0.609"/>
	<path fill="#D12060" d="M92.988,39.027c0,0.336-0.271,0.609-0.607,0.609c-0.34,0-0.611-0.273-0.611-0.609s0.271-0.61,0.611-0.61
		C92.716,38.417,92.988,38.691,92.988,39.027z"/>
	<circle fill="#D12060" cx="94.249" cy="39.027" r="0.608"/>
	<circle fill="#D12060" cx="96.116" cy="39.027" r="0.61"/>
	<circle fill="#D12060" cx="97.986" cy="39.027" r="0.609"/>
	<circle fill="#D12060" cx="99.855" cy="39.027" r="0.609"/>
	<circle fill="#D12060" cx="101.724" cy="39.027" r="0.609"/>
	<circle fill="#D12060" cx="103.593" cy="39.027" r="0.609"/>
	<circle fill="#D12060" cx="105.461" cy="39.027" r="0.608"/>
	<circle fill="#D12060" cx="107.331" cy="39.027" r="0.608"/>
	<circle fill="#D12060" cx="109.2" cy="39.027" r="0.608"/>
	<circle fill="#D12060" cx="111.068" cy="39.027" r="0.609"/>
</g>
<path fill="#D12060" d="M64.314,33.68c-1.811,0-3.278,1.469-3.278,3.279s1.468,3.279,3.278,3.279c1.812,0,3.281-1.469,3.281-3.279
	S66.126,33.68,64.314,33.68z M61.85,38.152l0.596-2.581h0.925l-0.596,2.581H61.85z M66.109,38.152h-0.828l-0.865-1.62l-0.365,1.62
	h-0.858l0.599-2.581h0.834l0.875,1.634l0.375-1.634h0.834L66.109,38.152z"/>
<line fill="none" stroke="#D12060" stroke-miterlimit="10" x1="122.75" y1="8.07" x2="122.75" y2="56.375"/>
<g>
	<path fill="#D12060" d="M134.26,19.452c0.044,1.09,0.175,3.118,3.795,3.118c3.271,0,3.685-2.028,3.685-2.812
		c0-1.766-1.417-2.115-3.619-2.66c-2.399-0.589-3.468-0.851-4.274-1.396c-1.286-0.873-1.635-2.05-1.635-3.097
		c0-3.205,3.03-4.601,5.996-4.601c1.047,0,3.161,0.174,4.426,1.548c0.873,0.959,0.916,2.028,0.96,2.682h-2.268
		c-0.109-1.962-1.767-2.398-3.314-2.398c-2.181,0-3.489,0.981-3.489,2.551c0,1.396,0.916,1.875,2.835,2.333
		c3.751,0.959,4.165,1.047,5.081,1.657c1.461,0.959,1.569,2.486,1.569,3.14c0,2.791-2.181,4.906-6.214,4.906
		c-1.199,0-3.642-0.196-4.885-1.788c-0.894-1.155-0.916-2.42-0.916-3.183H134.26z"/>
	<path fill="#D12060" d="M149.522,8.31v9.747c0,1.679,0.371,2.376,0.698,2.834c0.981,1.308,2.508,1.548,3.598,1.548
		c4.252,0,4.252-3.336,4.252-4.47V8.31h2.115v9.703c0,0.851-0.022,2.617-1.287,4.187c-1.548,1.941-3.946,2.181-5.08,2.181
		c-1.482,0-4.1-0.415-5.561-2.508c-0.479-0.698-0.915-1.613-0.915-3.968V8.31H149.522z"/>
	<path fill="#D12060" d="M164.24,8.31h3.859l4.448,12.974l4.557-12.974h3.598v15.743h-2.137V9.879l-5.168,14.173h-2.071
		l-4.972-14.086v14.086h-2.114V8.31z"/>
	<path fill="#D12060" d="M184.823,8.31h3.859l4.448,12.974l4.557-12.974h3.598v15.743h-2.137V9.879l-5.168,14.173h-2.071
		l-4.972-14.086v14.086h-2.114V8.31z"/>
	<path fill="#D12060" d="M205.1,8.31h9.878v1.854h-7.697v4.906h7.326v1.832h-7.326v5.233h7.871v1.919H205.1V8.31z"/>
	<path fill="#D12060" d="M218.639,8.31h5.626c0.807,0,2.464,0,3.619,0.741c1.178,0.742,1.745,1.941,1.745,3.206
		c0,1.112-0.415,2.093-1.112,2.791c-0.676,0.676-1.374,0.894-1.854,1.025c1.505,0.393,2.181,1.068,2.398,3.031
		c0.218,1.854,0.371,3.206,0.981,4.95h-2.333c-0.35-1.047-0.567-2.965-0.72-4.165c-0.262-2.29-0.807-2.944-3.445-2.944h-2.747v7.108
		h-2.159V8.31z M220.754,15.091h3.445c0.24,0,1.482,0,2.071-0.349c0.306-0.174,1.068-0.742,1.068-2.05
		c0-2.551-2.268-2.551-3.14-2.551h-3.445V15.091z"/>
</g>
<g>
	<path fill="#D12060" d="M131.321,53.615c11.298-6.411,16.61-10.59,16.61-14.131c0-3.046-2.55-4.888-5.915-4.888
		c-3.931,0-6.269,1.948-6.269,4.923h-3.896c0.177-4.923,4.356-7.827,9.952-7.827c6.8,0,9.81,3.436,9.81,7.296
		c0,4.32-4.568,9.102-15.193,14.91v0.07h16.008v2.904h-21.107V53.615z"/>
	<path fill="#D12060" d="M168.076,31.692c7.119,0,11.263,4.179,11.263,12.927s-4.144,12.927-11.263,12.927
		c-7.118,0-11.262-4.179-11.262-12.927S160.958,31.692,168.076,31.692z M168.076,54.642c5.242,0,7.579-3.931,7.579-10.022
		s-2.337-10.022-7.579-10.022c-5.241,0-7.579,3.931-7.579,10.022S162.835,54.642,168.076,54.642z"/>
	<path fill="#D12060" d="M193.96,36.119c-2.055,1.948-4.321,3.117-7.225,4.108v-3.294c2.727-1.026,5.524-2.62,7.543-4.568h3.365
		v24.508h-3.684V36.119z"/>
	<path fill="#D12060" d="M211.378,32.365h18.487v2.904h-15.123l-0.425,7.721c2.231-2.09,4.427-2.728,7.331-2.728
		c4.285,0,9.669,2.444,9.669,8.394c0,6.305-5.206,8.89-10.767,8.89c-4.64,0-10.342-1.664-10.342-7.26h3.896
		c0.143,3.081,2.94,4.355,6.092,4.355c3.967,0,7.438-2.019,7.438-5.844c0-3.931-3.754-5.631-7.189-5.631
		c-2.691,0-5.277,1.134-6.127,3.612h-3.577L211.378,32.365z"/>
</g>
<line fill="none" stroke="#FFFFFF" stroke-miterlimit="10" x1="0" y1="0.5" x2="240" y2="0.5"/>
<line fill="none" stroke="#FFFFFF" stroke-miterlimit="10" x1="0" y1="62.484" x2="240" y2="62.484"/>
</svg>
