<?xml version="1.0" encoding="utf-8"?>
<!-- Generator: Adobe Illustrator 16.0.4, SVG Export Plug-In . SVG Version: 6.00 Build 0)  -->
<!DOCTYPE svg PUBLIC "-//W3C//DTD SVG 1.1//EN" "http://www.w3.org/Graphics/SVG/1.1/DTD/svg11.dtd">
<svg version="1.1" id="Layer_1" xmlns="http://www.w3.org/2000/svg" xmlns:xlink="http://www.w3.org/1999/xlink" x="0px" y="0px"
	 width="100%" height="100%" viewBox="0 188.02 952.5 184.22" xml:space="preserve">
<style type="text/css">
<![CDATA[
	.st0{enable-background:new    ;}
	.st1{fill:none;stroke:#003E70;stroke-width:0.832;stroke-miterlimit:10;}
	.st2{fill:none;}
	.st3{fill:#003E70;}
]]>
</style>
<g>
	<path class="st3" d="M221.68,369.03c-15.49,0-16.68-8.34-16.68-16.69v-28.6h8.58v33.13c0,4.29,1.43,9.06,7.87,9.06
		c7.15-0.24,7.63-5.01,7.63-9.06v-30.03c0-4.53-0.95-7.15-2.15-11.44c-1.67-6.67-3.81-10.25-7.15-16.44l-8.58-16.45
		c-2.86-5.24-3.81-8.82-5-14.54c-1.19-5.48-1.19-9.06-1.19-14.78v-6.67c0-8.34,1.19-16.45,16.21-16.45
		c15.49,0,16.45,8.34,16.45,16.69v25.5h-8.82v-30.03c0-4.29-0.95-8.82-7.63-8.82c-7.15,0.24-7.87,4.77-7.87,8.82v8.1
		c0,0.24,0,0.48,0,0.71c0,5.72,0.24,9.54,1.43,15.49c1.19,5.24,2.38,8.58,5,13.82l8.1,15.49c1.67,3.81,4.77,8.82,6.67,14.78
		c1.91,6.2,3.1,8.82,3.1,15.97v25.98C237.65,360.92,236.69,369.03,221.68,369.03z"/>
	<path class="st3" d="M288.42,368.07h-8.58v-70.55h-15.25v70.56h-8.82V246.51c0-8.34,1.19-16.68,16.68-16.68
		c15.26,0,15.97,8.34,15.97,16.45V368.07z M279.84,292.04v-50.06c0-4.05-0.48-8.82-7.63-8.82c-6.67,0-7.87,4.77-7.87,8.82v50.06
		H279.84z"/>
	<path class="st3" d="M331.32,313.73v-83.19h8.58v137.53h-8.58v-26.22l-15.49-73.89v100.11h-8.58V230.54h7.87L331.32,313.73z"/>
	<path class="st3" d="M388.53,235.78h-12.87v132.29h-8.82V235.78h-12.4v-5.01h34.08L388.53,235.78L388.53,235.78z"/>
	<path class="st3" d="M435.96,368.07h-8.58v-70.55h-15.25v70.56h-8.82V246.51c0-8.34,1.19-16.68,16.69-16.68
		c15.26,0,15.97,8.34,15.97,16.45L435.96,368.07L435.96,368.07z M427.38,292.04v-50.06c0-4.05-0.48-8.82-7.63-8.82
		c-6.67,0-7.87,4.77-7.87,8.82v50.06H427.38z"/>
	<path class="st3" d="M513.67,323.98v31.23c0,7.63-3.81,13.83-16.21,13.83c-12.16,0-16.69-5.96-16.69-13.35V246.75
		c0-8.34,1.19-16.69,16.69-16.69c15.25,0,16.21,8.34,16.21,16.45v25.98h-8.82v-30.27c0-4.05-0.48-8.82-7.39-8.82
		s-7.87,4.77-7.87,8.82v116.8c0,3.58,3.1,6.91,7.87,6.91c5.01-0.24,7.39-3.1,7.39-6.67v-35.28H513.67z"/>
	<path class="st3" d="M557.05,368.07v-58.16c0-4.05-0.48-8.34-3.34-10.01c-2.62-1.91-4.77-2.38-7.87-2.38h-3.81v70.79h-8.82v-137.3
		h14.54c0,0,0.48,0,0.95,0c2.38,0,8.82,0.24,12.87,3.34c4.29,3.1,4.29,7.39,4.29,12.16c0,0.24,0,0.72,0,1.19v35.52
		c0,2.62-0.48,4.29-2.15,6.68c-1.91,2.62-6.91,5.01-7.15,5.24c0.48,0.24,4.29,2.38,5.96,4.29c3.1,3.33,3.34,6.43,3.34,10.25
		c0,0.71,0,1.67,0,2.38v56.25h-8.82L557.05,368.07L557.05,368.07z M553.47,236.02c-1.67-0.71-3.82-1.19-6.44-1.19h-5.24v58.88h4.05
		c3.58,0,7.39-1.67,8.82-3.57c1.43-1.43,2.14-5.72,2.14-9.54v-36.95C557.05,239.84,556.33,237.21,553.47,236.02z"/>
	<path class="st3" d="M592.09,359.02c0,3.58,2.62,6.67,7.62,6.67c4.77,0,7.39-3.34,7.39-6.91v-128h8.82v124.9
		c0,7.39-3.82,13.35-16.21,13.35c-12.16,0-16.21-6.2-16.21-13.83V230.78h8.82v128.24L592.09,359.02L592.09,359.02z"/>
	<path class="st3" d="M653.83,235.78h-18.83v-5.24h29.56l-20.5,131.81h21.45v5.72h-32.18L653.83,235.78z"/>
	<path class="st3" d="M222.63,209.56c0,2.62-0.24,5-1.91,7.15c-1.67,2.15-4.29,2.86-6.91,2.86s-5.24-0.48-6.91-2.62
		c-1.91-2.15-2.15-4.77-2.15-7.39v-16.69h3.34v16.45c0,1.67,0,3.58,0.95,5.01c0.95,1.67,3.34,1.91,5,1.91s3.58-0.48,4.77-1.91
		c1.19-1.43,1.19-3.34,1.19-5.24v-16.21h2.62L222.63,209.56L222.63,209.56z"/>
	<path class="st3" d="M248.13,219.1h-3.1l-13.35-22.64v22.64h-2.86v-26.22h4.05l12.4,21.21v-21.21h2.62v26.22H248.13z"/>
	<path class="st3" d="M254.33,219.1v-26.22h3.34v25.98h-3.34V219.1z"/>
	<path class="st3" d="M273.16,219.1h-3.1l-8.82-25.98h3.34l7.15,21.45l7.15-21.45h2.86L273.16,219.1z"/>
	<path class="st3" d="M302.24,219.1h-16.92v-26.22h16.45v2.86h-13.11v8.34h10.49v2.62h-10.49v9.53h13.59V219.1z"/>
	<path class="st3" d="M321.79,219.1l-4.77-11.2h-7.15v11.2h-3.34v-26.22h9.77c2.15,0,4.29,0.24,5.96,1.67
		c1.67,1.43,2.86,3.58,2.86,5.72c0,3.1-1.91,5.96-4.77,6.67l5.24,12.16L321.79,219.1L321.79,219.1z M315.83,205.04
		c1.67,0,3.1,0,4.53-1.43c0.95-0.95,1.43-2.15,1.43-3.34c0-1.43-0.48-2.86-1.91-3.58c-1.19-0.71-2.15-0.95-3.58-0.95h-6.44v9.3
		H315.83L315.83,205.04z"/>
	<path class="st3" d="M331.56,211.47c0.95,3.57,4.05,5.24,7.63,5.24c1.67,0,3.58-0.24,4.77-1.19c0.95-0.71,1.67-2.15,1.67-3.34
		c0-2.62-2.15-3.58-4.53-4.29l-4.29-1.19c-1.67-0.48-3.34-0.95-4.77-2.15c-1.43-1.19-2.15-3.1-2.15-4.77c0-5.01,4.29-7.15,8.82-7.15
		c4.29,0,7.87,2.15,9.3,6.44l-2.86,0.71c-0.48-2.86-3.57-4.53-6.44-4.53c-2.38,0-5.48,1.19-5.48,4.05s2.38,3.58,4.77,4.05l3.81,0.95
		c1.67,0.48,3.34,0.95,4.77,1.91c1.67,1.43,2.38,3.1,2.38,5.24c0,2.38-0.95,4.53-2.86,5.96c-1.91,1.43-4.53,1.91-6.91,1.91
		c-5.24,0-8.82-2.38-10.49-7.39L331.56,211.47z"/>
	<path class="st3" d="M353.97,219.1v-26.22h3.34v25.98h-3.34V219.1z"/>
	<path class="st3" d="M371.6,219.1h-3.34v-23.36h-7.39v-2.86H379v2.86h-7.39V219.1L371.6,219.1z"/>
	<path class="st3" d="M391.63,208.13v10.96h-3.1v-10.96l-8.58-15.02h3.81l6.91,11.92l6.91-11.92h2.86L391.63,208.13z"/>
	<path class="st3" d="M413.08,206.23c0-6.44,3.1-13.59,10.73-13.59c7.39,0,10.73,6.67,10.73,13.11s-3.34,13.83-10.73,13.83
		C416.42,219.34,413.08,212.66,413.08,206.23z M431.2,205.99c0-2.38-0.48-5.01-1.67-7.15c-1.19-2.15-3.1-3.57-5.72-3.57
		c-5.72,0-7.39,6.2-7.39,10.96c0,4.53,1.91,10.49,7.39,10.49C429.53,216.71,431.2,210.28,431.2,205.99z"/>
	<path class="st3" d="M439.54,219.1v-26.22h15.97v2.86h-12.63v8.34h10.49v2.62h-10.49v12.4H439.54z"/>
	<path class="st3" d="M487.93,211c-1.19,5-4.05,8.58-9.54,8.58c-7.63,0-10.49-7.15-10.49-13.59c0-6.67,3.34-13.11,10.97-13.11
		c5.24,0,8.34,3.58,9.29,8.34l-3.1,0.48c-0.95-3.34-2.62-6.2-6.44-6.2c-5.72,0-7.15,6.2-7.15,10.73c0,2.15,0.24,4.53,1.19,6.44
		c0.95,2.38,3.1,4.29,5.72,4.29c4.05,0,5.96-3.1,6.68-6.44L487.93,211z"/>
	<path class="st3" d="M510.57,219.1h-3.34l-2.62-7.63h-9.53l-2.38,7.63h-2.62l8.34-25.98h3.82L510.57,219.1z M499.84,196.46
		l-4.05,12.4h8.1L499.84,196.46z"/>
	<path class="st3" d="M529.4,219.1h-15.49v-26.22h3.34v23.36h12.16V219.1z"/>
	<path class="st3" d="M533.21,219.1v-26.22h3.33v25.98h-3.33V219.1z"/>
	<path class="st3" d="M542.99,219.1v-26.22h15.97v2.86h-12.63v8.34h10.48v2.62h-10.48v12.4H542.99z"/>
	<path class="st3" d="M559.91,206.23c0-6.44,3.1-13.59,10.73-13.59c7.39,0,10.73,6.67,10.73,13.11s-3.34,13.83-10.73,13.83
		C563.25,219.34,559.91,212.66,559.91,206.23z M577.79,205.99c0-2.38-0.48-5.01-1.67-7.15c-1.19-2.15-3.1-3.57-5.72-3.57
		c-5.72,0-7.39,6.2-7.39,10.96c0,4.53,1.91,10.49,7.39,10.49C576.12,216.71,577.79,210.28,577.79,205.99z"/>
	<path class="st3" d="M601.62,219.1l-4.77-11.2h-7.15v11.2h-3.34v-26.22h9.77c2.15,0,4.29,0.24,5.96,1.67
		c1.67,1.43,2.86,3.58,2.86,5.72c0,3.1-1.91,5.96-4.77,6.67l5.24,12.16L601.62,219.1L601.62,219.1z M595.67,205.04
		c1.67,0,3.1,0,4.53-1.43c0.95-0.95,1.43-2.15,1.43-3.34c0-1.43-0.48-2.86-1.91-3.58c-1.19-0.71-2.14-0.95-3.58-0.95h-6.43v9.3
		H595.67L595.67,205.04z"/>
	<path class="st3" d="M628.8,219.1h-3.1l-13.35-22.64v22.64h-2.62v-26.22h4.05l12.39,21.21v-21.21h2.62V219.1L628.8,219.1z"/>
	<path class="st3" d="M634.99,219.1v-26.22h3.33v25.98h-3.33V219.1z"/>
	<path class="st3" d="M662.64,219.1h-3.34l-2.62-7.63h-9.53l-2.38,7.63h-2.62l8.34-25.98h3.81L662.64,219.1z M651.92,196.46
		l-4.05,12.4h8.1L651.92,196.46z"/>
	<g>
		<path class="st3" d="M156.37,282.5c0,0-1.43-1.43-4.05-4.29c0.24-1.19,0.24-2.38,0.48-4.29l0.24-2.86l-1.19,0.71
			c-0.48,0.24-1.43,1.43-2.86,2.86c-2.86-3.1-6.44-6.91-10.96-11.68c0-5,0-9.06,0-12.16c8.58,6.44,15.73,11.44,15.73,11.44
			c0.48,0.24,0.95-0.48,0.48-0.72c-3.1-2.38-9.06-6.67-16.21-11.92c0-3.81,0-6.2,0-6.91c0-0.95,0-2.62-0.72-2.15
			c-1.67,1.19-9.06-0.24-9.3-0.24c-0.71,0.24-1.19,0.24-1.91,0.48c-6.67-4.77-13.35-9.77-19.07-14.06
			c-1.43-0.95-1.91-0.24-0.48,0.71c0.95,0.72,9.06,6.91,18.35,13.59c-2.86,0.48-5.24,0.72-7.39,0.48
			c-3.34-3.58-6.91-7.15-10.73-10.96c-1.19-1.19-1.91-0.48-0.95,0.71c0.24,0.24,4.05,4.29,9.53,10.25
			c-1.67-0.24-3.58-0.48-5.24-0.71c-0.95-1.43-2.15-2.86-3.1-4.05c-1.67-2.38-1.91-0.71-0.95,0.72c0.48,0.71,1.43,1.91,2.15,3.34
			c-1.19,0-2.15,0-3.57,0c-0.24-0.48-0.24-0.95-0.48-1.43c-0.71-1.91-1.91-2.38-0.95,0.48c0,0.48,0.24,0.71,0.24,1.19
			c-0.72,0.24-1.67,0.48-2.62,0.95c-0.24-1.91-0.72-3.81-0.95-5.72c-0.48-1.91-1.43-1.91-0.95,0.24c0.24,1.91,0.71,4.05,0.95,5.96
			c-1.19,0.71-2.62,1.67-3.34,2.86c0-3.34,0-6.67-0.24-9.77c0-3.1-0.95-1.91-0.95,0c0,2.38,0,5.24,0,8.82
			c-0.95-1.19-2.38-1.91-3.81-2.62c0.24-1.67,0.48-3.58,0.72-5.24c0.24-2.15-0.72-2.15-0.95-0.24c-0.24,1.67-0.71,3.34-0.95,5
			c-1.19-0.48-2.15-0.71-2.62-0.71c0-0.24,0.24-0.48,0.24-0.72c0.95-3.1-0.48-2.38-0.95-0.48c-0.24,0.48-0.24,0.95-0.48,1.43
			c-1.19,0-2.38,0-3.57,0c0.95-1.43,1.67-2.62,2.38-3.34c0.95-1.43,0.71-3.1-0.95-0.71c-0.95,1.19-1.91,2.62-3.1,4.05
			c-1.91,0-3.34,0-4.77,0.24c5.24-5.48,9.06-9.53,9.06-9.53c1.19-1.19,0.24-1.91-0.95-0.71c-3.58,3.58-6.91,7.15-10.25,10.49
			c-5.01,0.24-6.91,0.48-8.58,0.48c9.53-6.91,17.88-13.35,19.07-14.06c1.43-0.95,0.71-1.67-0.48-0.72
			c-5.96,4.53-13.11,9.77-20.02,14.78c-0.24,0-0.48,0-0.71,0c-0.48,0-0.72,0-1.43,0c-1.67,0-5.72,0-6.91,0
			c-0.48,0-1.19-0.24-1.43-0.24c-0.95,0-0.95,0.48-0.95,1.43c0,0.24,0,3.1,0,7.39c-6.91,5-12.87,9.3-15.73,11.68
			c-0.48,0.48,0,1.19,0.48,0.72c0,0,6.91-5.01,15.25-11.2c0,3.34,0,7.63,0,12.16c-11.68,12.4-17.88,18.83-17.88,19.07
			c-0.95,0.71,0,1.43,0.48,0.71c2.62-2.38,9.53-9.53,17.4-17.88c0,5.96,0,12.4,0,18.59c-6.44,10.25-10.96,17.88-10.96,18.12
			c-0.95,1.43-0.72,2.38,0.24,1.19c0.24-0.24,4.77-7.39,10.73-16.69c0,4.05,0,7.87,0,11.44c-1.67,0.24-3.58,0.72-4.53,1.43
			c-0.95,0.95-0.71,2.15-0.71,3.58c0,0.95-0.24,2.38-0.48,3.1c-0.48,1.19-1.43,2.15-2.15,2.86c-0.71,0.72-1.19,1.67-1.43,2.86
			c-0.72,1.67,0.24,4.05,1.43,6.2c0.48,0.95,1.67,2.15,2.86,2.38c4.05,0.72,4.77-2.14,5.24-3.81v-0.24c0,2.86,0,4.29,0.24,4.53
			c0,0,2.15,0,5.24,0c-0.71,2.15-1.19,3.58-1.19,3.58c-0.71,2.62,0.48,1.67,0.95,0.72c0.48-1.43,0.95-2.86,1.67-4.53
			c2.86-0.24,6.2-0.24,9.77-0.48c0.72,1.19,2.15,2.86,2.86,4.05l0.71,1.19l0.48,0.71c0.48,0.95,0.95,1.67,1.43,2.62
			c-0.48,2.38-0.71,3.82-0.71,4.05c-0.95,3.58,0,3.81,0.71,0.48c0-0.24,0.24-1.43,0.72-3.34c0.48,0.72,0.95,1.19,1.43,1.91
			c1.19,1.43,3.58,3.1,9.06,5.48c2.15,0.95,5.24,1.43,8.58,1.67c0.24,2.86,0.95,2.15,0.95,0c4.29,0,9.3-0.48,14.06-2.14l0,0l0,0
			c2.62-1.19,4.29-2.62,5.48-3.82v0.24c0.95,3.33,1.67,3.1,0.71-0.48c0,0,0-0.24,0-0.48c0.72-0.71,0.95-1.43,0.95-1.67
			c0.24-0.47,2.62-5.96-0.24-9.77c0,0,0,0-0.24-0.24l0,0c0,0-0.24,0-0.24-0.24c-0.24-0.24-0.48-0.24-0.48-0.48
			c5.72,0.24,11.68,0.48,15.73,0.72c0.48,1.19,0.95,2.38,1.19,3.33c0.24,0.95,1.67,1.91,0.95-0.72c0,0-0.24-0.95-0.95-2.62
			c2.38,0,4.05,0.24,4.05,0c0-1.91,0-3.82,0-5.72c3.58-0.72,4.53-1.43,6.91-3.58c2.62-2.38,4.29-5.72,4.29-8.82
			c0.24,0.24,0.24,0.48,0.24,0.48c0.95,1.19,1.19,0.48,0.24-1.19c0,0-0.24-0.48-0.95-1.43c-0.48-1.91-1.43-3.34-2.86-4.77
			c-1.19-2.15-2.86-4.77-4.53-7.63c1.91-0.24,3.81-0.72,5.24-1.43c1.67-0.72,4.29-2.62,5.48-5.72l0.24-0.48
			c0.24-0.24,0.24-0.71,0.24-0.95c1.67,1.67,2.86,2.86,3.58,3.57C156.37,283.7,157.08,283.22,156.37,282.5z M148.26,275.59
			c-0.95,1.19-1.91,2.38-2.62,3.34c-0.24-1.19-0.48-3.34-0.95-5c-0.24-1.19-0.48-2.15-0.95-3.1
			C145.16,272.73,146.83,274.16,148.26,275.59z M138.01,265.1c1.19,1.19,2.38,2.38,3.57,3.81v0.48c0.48,4.29-0.48,7.63-0.95,9.53
			c-0.71,1.91-1.19,2.86-2.15,3.34c-0.24,0-0.48,0.24-0.71,0.24C137.77,275.83,138.01,270.11,138.01,265.1z M134.67,243.41
			c0-0.95,1.43-1.19,1.67,0.24c0.24,0.72,0.24,20.02,0,39.09c-0.48,0.24-1.19,0.24-1.67,0.24l0,0
			C134.67,263.91,134.67,243.89,134.67,243.41z M132.05,243.41c0-0.71,1.43-0.71,1.19,0.48c0,0.24,0,19.78-0.24,38.61
			c-0.24,0-0.48-0.24-0.71-0.24c0-0.24,0-0.48,0-0.48c0-1.91,0.95-2.15,0-3.1c-0.24-0.24-0.48-0.48-0.95-0.48
			C131.58,259.86,131.81,243.65,132.05,243.41z M128.48,242.46c0.24-1.19,1.43-0.24,1.43,0c0,0.48,0,17.64-0.24,35.04
			c-0.48,0-0.95,0.24-1.43,0.24C128.24,267.96,128.48,255.81,128.48,242.46z M128.24,278.69
			C128.24,278.69,128.48,278.69,128.24,278.69c0.24,0,2.15-0.71,2.62-0.24c0.72,0.48,0.48,2.86,0.48,3.81c0,0,0,0.48,0,0.95l0,0l0,0
			l0,0c0,0.24,0,0.24,0.24,0.48c0.24,0.71,0.95,0.95,0.95,1.19c-0.48-0.24-0.71-0.24-1.19-0.24l0,0l0,0
			c-0.48-0.24-1.19-0.24-1.67-0.24l0,0c-0.48,0-0.95-0.24-1.43-0.24l0,0c-0.48,0-0.95,0-1.19,0l0,0c-1.19,0-2.15,0.24-2.86,0.72l0,0
			c-0.24,0.24-0.71,0.24-0.95,0.48c0,0,0,0-0.24,0c-0.24,0.24-0.48,0.48-0.71,0.71c-0.48,0.48-0.72,1.19-0.95,1.91
			c-0.24-0.71-0.95-1.43-0.95-2.14c0-2.14,1.43-3.82,2.38-4.53c0.24-0.24,0.72-0.48,0.95-0.71l0.24-0.24
			c0.24-0.24,0.48-0.24,0.71-0.48c0,0,0.24,0,0.24-0.24c0.24,0,0.48-0.24,0.72-0.24h0.24C127.05,278.93,127.76,278.93,128.24,278.69
			z M132.53,286.08c0,0,0.24,0,0.24,0.24c0,1.67,0,3.34,0,5.01c-0.71,0-1.19,0.24-1.67,0.24c0-1.91,0-4.05,0-5.96
			c0.24,0,0.71,0.24,0.95,0.24L132.53,286.08z M129.67,285.12c0,2.38,0,4.77,0,7.15c0,0-0.24,0-0.24,0.24
			c-0.24,0.24-0.72,0.24-1.19,0.48c0-2.38,0-5.24,0-8.1C128.71,284.89,129.19,285.12,129.67,285.12z M127.05,284.89
			c0,2.86,0,5.72,0,8.34c-0.24,0-0.48,0-0.48,0.24c-2.15,0.24-3.34-0.72-3.57-1.19c-0.24-0.24-0.24-0.48-0.48-0.95
			c-0.24-0.48-0.24-1.19-0.24-1.19c0-1.19,0.48-1.91,1.67-3.1C124.42,285.84,125.62,285.12,127.05,284.89z M97.01,246.75
			c0.48-4.05,10.96-5.24,12.87-4.77c1.67,0.48,4.53,0.95,5.96,1.19c0,0,5.96,1.43,11.2-0.48c0,0.95,0,18.83,0,35.75
			c-0.95,0.24-3.1,0.71-4.77,2.14c-1.67,1.43-2.86,3.1-2.86,5.24c0,1.43,0.48,2.86,1.43,5.01c0.48,1.19,0.71,2.38,0.71,2.38
			c0.95,1.67,0.71,2.86,0.95,4.29c0.48,2.38,1.91,2.62,2.38,2.86c0.72,0.24,1.43,0.24,1.91,0.48c0,0.95,0,1.91,0,2.62
			c-0.24,0-0.24,0-0.48,0c-3.58-0.24-4.77-0.71-6.91-1.91l-2.38-1.43c-4.05-1.91-9.77-1.91-12.63-0.72
			c-1.43,0.72-2.38,0.95-3.1,2.14l-0.24,0.48v0.24c0.24,0.72,0.95,1.67,1.19,2.38c0.24,0.72,0.24,1.91,0.24,2.38
			c0,1.19-0.95,2.15-1.19,2.62l0,0c-0.95,0.48-1.43,1.91-1.43,3.58c-1.19,0.48-1.91,0.95-2.86,1.67
			C97.25,314.68,96.77,246.75,97.01,246.75z M107.98,315.4c0.24,0.48,0.48,0.72,0.71,1.19c0.24,0.48,0.72,0.72,1.19,0.95
			c0.48,0.24,0.95,0.71,1.43,0.95c0.24,0.24,0.48,0.24,0.71,0.48c0.48,0.24,0.72,0.48,1.19,0.72c-0.24,0-0.72,0-1.19,0l-1.67,0.24
			c-0.48,0-0.71,0-0.95,0l0,0l0,0c-0.95,0-1.91,0.24-3.1,0l0,0l0,0c-0.48,0-0.95-0.24-1.43-0.24c-0.71-0.24-1.43-0.48-1.91-1.19l0,0
			l0,0c-0.72-0.48-0.95-1.19-1.43-2.15c-0.24-0.48-0.24-0.71-0.24-1.19l0,0c0-0.48,0-0.71,0-0.95l0,0c0-0.71,0-1.19,0.24-1.67l0,0
			c0-0.48,0.24-0.72,0.48-0.95l0,0c0.24-0.24,0.48-0.48,0.71-0.72c0,0,0.24,0,0.24-0.24c0.48,0,0.71-0.24,1.19-0.24
			c0.24,0,0.48,0,0.71,0c0.24,0,0.24,0,0.48,0c0.48,0,0.95,0,1.19,0.24l0,0c0.48,0,1.19,0.24,1.91,0.48c0,0.24-0.24,0.48-0.24,0.71
			c0,0.24-0.24,0.72-0.24,0.95c0,0.23-0.24,0.71-0.24,0.95C107.5,314.44,107.74,314.92,107.98,315.4z M108.46,313.49
			c0-0.48,0.24-1.19,0.48-1.91c0.24,0,0.48,0,0.71,0c1.43,0.48,2.86,0.95,4.29,1.43C112.03,313.01,110.36,313.25,108.46,313.49z
			 M119.18,314.68c1.91,0.48,3.81,0.95,5.96,1.19c-4.53,0.24-10.25,0.48-15.02,0.72c-0.48-0.47-0.95-0.72-1.19-1.19
			C112.27,314.92,115.84,314.68,119.18,314.68z M110.36,321.36c0,0.72,0,1.19-0.71,1.67c-3.1,2.62-5.48,3.1-11.44,2.38
			c-0.71,0-1.19-0.24-1.67-0.24c0-1.19,0-2.38,0-3.34c1.67,0,3.34-0.48,5.01-1.67c0.24,0,0.71,0,1.43,0
			c0.71,0.24,1.43,0.72,2.15,0.95C107.74,321.36,108.22,321.36,110.36,321.36z M99.87,315.87L99.87,315.87l-1.19-0.48
			c0.48-0.24,0.95-0.48,1.19-0.48l0,0C99.87,314.92,99.87,315.4,99.87,315.87z M96.3,315.87c2.86,0,4.29,2.86,4.05,3.1
			c-2.15,2.15-6.2,2.38-7.87,0C92.25,318.5,93.92,315.87,96.3,315.87z M92.25,317.07c0.48,0.24-0.48,0.48-0.48,0.48
			c-1.43-0.24-3.81-0.48-6.67-0.71c0,0,0-0.24-0.24-0.24c0-0.24,0-0.24-0.24-0.47C87.96,316.35,90.81,316.59,92.25,317.07z
			 M84.14,314.44c-0.24-0.48-0.48-0.95-0.72-1.67c3.58,0.48,9.3,1.43,10.73,2.38c-0.71,0.24,0-0.24-0.95,0.71
			C92.01,315.4,88.43,314.92,84.14,314.44z M89.86,318.26c0.48,0,1.43,0,0.95,0.71c0,0-1.91-0.24-5-0.24
			c-0.24-0.24-0.24-0.48-0.48-0.72C87.72,318.02,89.15,318.02,89.86,318.26z M91.05,319.93c1.67,0.48,2.62,1.19,4.05,1.43
			c0,0.95,0,2.15,0,3.1c-1.19-0.48-2.15-0.96-3.34-1.43c0,0-1.43-0.72-3.34-1.67c-0.72-0.48-1.43-0.95-2.15-1.67
			C88.91,319.69,90.58,319.93,91.05,319.93z M64.36,243.17c0-0.48,0-0.71,0.71-0.71c11.44,0.24,28.84-4.05,30.27,4.05
			c0,0.24,0.48,52.2,0.24,67.93c-3.81-1.43-6.67-2.15-13.11-2.86l-1.19-1.67c-1.19-1.91-1.67-2.62-2.38-3.1l-2.38-2.38
			c-1.19-0.95-2.86-2.62-3.1-2.86c-3.58-2.38-6.67-3.58-9.06-4.05C64.6,265.58,64.12,246.99,64.36,243.17z M62.21,244.37
			c0-1.67,0.95-1.67,0.71-0.48c0,1.67,0,19.78-0.48,53.63c-0.48,0-0.95,0-1.19-0.24C61.73,277.73,62.21,246.75,62.21,244.37z
			 M59.11,243.89c-0.24-0.95,0.95-1.19,0.95,0c0,0.48-0.24,32.89-0.48,53.63c-0.48,0-0.95,0-1.19,0.24
			C58.4,276.54,58.88,244.13,59.11,243.89z M55.3,243.41c0-1.19,1.67-0.71,1.67,0.71c-0.24,22.65-0.48,41-0.48,53.87h-0.48
			c0,0-0.48,0-0.95,0C55.3,275.35,55.3,243.89,55.3,243.41z M50.77,318.5c-0.95,0.72-1.67,0.95-2.86,0.72
			c-0.72,0-2.15-1.67-2.86-3.34c-0.24-0.71-0.24-1.43-0.24-2.86c0-0.47,0-0.71,0.24-0.95c0.24-0.48,0.48-0.72,0.72-1.19
			c0.48,0.71,1.19,1.19,2.15,1.67l1.67,0.95c0.95,0.71,2.38,1.19,3.34,1.19C52.68,315.87,51.96,317.54,50.77,318.5z M52.92,313.73
			c-0.24,0-1.43,0-3.1-0.72l-1.43-0.95c-0.95-0.95-1.19-1.67-1.19-1.91c0,0,0,0,0-0.24c0.72-0.71,4.05-0.71,6.44-0.48
			c0,1.43,0,2.62,0,4.05C53.15,313.49,52.92,313.49,52.92,313.73z M55.54,318.73c-0.24-0.48-0.24-3.81-0.24-4.77
			c0-1.43,0-2.86,0-4.53c0.48,0,0.72,0,1.19,0c0,5.01,0.24,7.87,0.48,8.1c0.24,0.24,5.48,0.24,11.68,0.24l0,0l0.24,0.48
			c0,0,0,0.24,0.24,0.48C61.97,318.97,55.54,318.97,55.54,318.73z M66.74,315.16c0.24,0.24,0.48,0.71,0.71,0.95
			c-5-0.24-8.82-0.48-9.06-0.72c0,0-0.24-2.14-0.24-5.48c0.48,0,0.95,0.24,1.19,0.24c0,2.62,0,4.29,0.24,4.53
			C60.07,314.92,62.93,314.92,66.74,315.16z M61.26,310.87c0.48,0.24,0.95,0.48,1.43,0.71l0,0c0.95,0.48,1.67,1.19,2.62,1.91
			c-2.38,0-4.05,0-4.05,0C61.26,313.25,61.26,312.3,61.26,310.87z M117.99,325.17c0,0.48,0,0.71-0.24,1.19v0.24
			c0,0.48-0.24,0.95-0.24,1.43l0,0c-0.24,0.47-0.24,0.95-0.48,1.43v0.24c-0.24,0.47-0.24,0.71-0.48,1.19l0,0
			c-0.24,0.48-0.48,0.95-0.71,1.19c-1.19,1.43-2.62,2.62-6.67,4.29c-1.19,0.47-2.15,0.72-3.34,0.95c-0.24,0-0.48,0-0.71,0.24
			c-0.95,0.24-1.67,0.48-2.62,0.48c-0.24,0-0.24,0-0.48,0c-0.95,0.24-1.91,0.24-2.86,0.24l0,0c-0.95,0-1.91,0-2.86,0l0,0
			c-0.95,0-1.91,0-2.62-0.24c-0.24,0-0.24,0-0.48,0c-0.48,0-0.95-0.24-1.43-0.24c-0.24,0-0.48-0.24-0.95-0.24
			c-0.24,0-0.71-0.24-0.95-0.24c-0.71-0.24-1.19-0.48-1.67-0.71c-5.24-2.38-8.82-4.05-10.25-6.2c-0.48-0.71-0.95-1.42-1.19-1.9
			c-0.24-0.48-0.48-0.95-0.71-1.19c-0.48-0.72-0.95-1.67-1.43-2.38l-0.71-0.71l-0.71-1.19c-0.48-0.95-0.95-1.91-1.43-2.62
			c-0.24-0.24-0.48-0.71-0.48-0.95s-0.71-1.43-0.71-1.43l0,0l-0.48-0.48c-0.24-0.48-0.48-0.71-0.71-0.95
			c-0.24-0.24-0.48-0.72-0.72-0.95c-0.48-0.71-0.95-1.19-1.19-1.43l0,0c0,0-0.24-0.24-0.48-0.24c-0.24-0.24-0.71-0.48-0.95-0.71l0,0
			c-0.48-0.24-0.95-0.71-1.67-0.95l0,0c-0.71-0.24-1.19-0.72-1.91-0.95c-0.48-0.24-0.72-0.48-1.19-0.48
			c-0.48-0.24-1.19-0.48-1.67-0.72c-0.48-0.24-0.95-0.24-1.19-0.48c-0.71-0.24-1.19-0.48-1.91-0.48c-0.48,0-0.95-0.24-1.19-0.24
			c-0.48,0-0.95,0-1.43,0c-0.24,0-0.24,0-0.48,0l0,0c-2.62,0-3.1-0.24-4.05-0.24l0,0c0,0-0.24,0-0.48,0c0,0,0,0-0.24,0
			c-0.24,0-0.48,0-0.71,0c0.24-0.24,0.24-0.71,0.48-0.95c0.24-0.95,0.24-2.15,0.24-3.1c0-1.43,0.71-2.86,1.19-3.58
			c0.24-0.24,0.48-0.24,0.72-0.47h0.24c0.24,0,0.48,0,0.71-0.24h0.24c0.24,0,0.71,0,0.95,0c0.24,0,0.71,0,0.95,0h1.19h0.24
			l0.95-0.24l0,0c0.95-0.24,1.91-0.48,3.1-0.72l0,0c0.48,0,1.19-0.24,1.91-0.24l0,0c0.95,0,1.67,0,2.62,0.24l0,0
			c0.48,0,1.19,0.24,1.67,0.48h0.24c0.48,0.24,1.19,0.48,1.67,0.72c0,0,0.24,0,0.24,0.24c0.71,0.24,1.19,0.71,1.91,1.19l0.24,0.24
			c0.71,0.48,1.43,0.95,2.15,1.67l0,0l0,0c0.24,0,1.19,0.95,1.91,1.43l3.1,2.62c0.71,0.48,1.91,2.38,3.1,4.05l0.95,1.19
			c0.71,0.95,1.19,2.38,1.67,3.81c0,0.24,0.24,0.24,0.24,0.48c0.24,0.48,0.24,0.71,0.48,1.19c0.24,0.24,0.24,0.48,0.48,0.72
			c0.24,0.24,0.48,0.71,0.48,0.95c0.24,0.24,0.48,0.48,0.71,0.71l0,0c0.24,0.24,0.48,0.48,0.71,0.71l0,0
			c0.24,0.24,0.48,0.48,0.72,0.48c0,0,0,0,0.24,0.24c0.24,0.24,0.48,0.48,0.95,0.48l1.91,0.95c0.72,0.48,1.43,0.95,2.38,1.19h0.24
			c0.95,0.48,1.67,0.71,2.86,0.95c0.48,0,0.95,0.24,1.19,0.24c0.24,0,0.24,0,0.24,0c6.44,0.95,11.68,0,13.83-2.38
			c0.71-0.72,1.19-1.67,0.95-2.86h0.48c2.15-0.24,2.86-0.24,4.05,0.71l0,0C117.04,323.02,117.99,323.74,117.99,325.17z
			 M135.87,319.45c-0.48-0.24-12.4-0.48-21.69-0.72c-0.71-0.24-1.19-0.72-1.91-0.95c9.3,0,19.31,0.24,22.17,0c0,0,0-0.71,0-1.91
			l1.43-0.24l0,0C135.87,317.54,135.87,318.73,135.87,319.45z M145.4,298c0.95,1.19,1.43,2.62,1.67,4.05
			c0.48,3.1,0.48,5.72-2.15,8.1c-0.24,0.24-0.71,0.72-0.95,0.95c-0.24,0.24-0.48,0.24-0.48,0.48l-0.24,0.24
			c-0.24,0.24-0.48,0.24-0.48,0.48l-0.24,0.24c-0.24,0.24-0.48,0.24-0.48,0.47c0,0-0.24,0-0.24,0.24c-0.24,0.24-0.48,0.24-0.71,0.24
			c0,0-0.24,0-0.24,0.24c-0.24,0-0.48,0.24-0.72,0.24h-0.24c-0.24,0-0.48,0.24-0.95,0.24h-0.24c-0.24,0-0.72,0.24-0.95,0.24l0,0
			c-0.48,0-0.71,0.24-1.19,0.24l-1.67,0.23l0,0c-0.72,0-1.43,0.24-1.91,0.24l0,0c-0.95,0-1.67,0.24-2.62,0.24c0,0,0,0-0.24,0
			c-0.71,0-1.67,0-2.38,0h-0.24c-0.71,0-1.43,0-2.38-0.24c0,0,0,0-0.24,0c-4.05-0.48-7.39-1.43-10.25-2.62
			c-0.71-0.24-1.43-0.48-1.91-0.95c-0.48-0.24-1.19-0.48-1.67-0.71l0,0c-1.43-0.48-2.62-0.95-4.05-1.19h-0.24
			c-0.48,0-0.95-0.24-1.43-0.24c-0.24,0-0.24,0-0.48,0c-0.48,0-1.19,0-1.67,0c0.24-0.95,0.71-1.91,0.71-2.62c0-0.24,0-0.48,0-0.48
			c-0.24-0.72-0.48-1.19-0.71-1.91c-0.24-0.48-0.48-0.95-0.71-1.67c0.48-0.72,0.95-1.19,1.91-1.67c2.15-0.95,7.15-1.43,11.2,0.48
			l2.86,1.19c2.15,0.95,3.81,1.91,7.63,2.38c0.72,0,1.43,0,2.15,0.24c0.48,0,0.95,0,1.43,0c0.48,0,0.95,0,1.43,0
			c0.48,0,1.19,0,1.67,0c0.71,0,1.43,0,1.91,0s1.19,0,1.67-0.24c0.48,0,0.95,0,1.43-0.24c0.71-0.24,1.19-0.24,1.67-0.48h0.24
			c0.48-0.24,0.95-0.24,1.43-0.48C144.92,301.81,145.4,299.19,145.4,298z M128.24,300.86c0.48,0,0.95,0,1.43,0c0,0.96,0,1.67,0,2.62
			c-0.48,0-0.95,0-1.43,0C128.24,302.76,128.24,301.81,128.24,300.86z M131.1,303.72c0-0.95,0-1.91,0-3.1c0,0,0,0,0.24,0
			c0.48-0.24,0.95-0.48,1.67-0.72c0,1.43,0,2.62,0,4.05C132.29,303.72,131.58,303.72,131.1,303.72z M134.67,303.72
			c0-1.67,0-3.34,0-5.24c0.48-0.48,1.19-0.95,1.67-1.43c0,2.38,0,4.53,0,6.67C135.63,303.72,135.15,303.72,134.67,303.72z
			 M143.97,297.52c0.24,0.95,0.48,3.58-3.1,5.01c-1.19,0.48-2.15,0.72-3.1,0.95c0-2.62,0-5.01,0-7.39c1.19-0.71,2.86-0.95,5.96,1.19
			C143.73,297.28,143.73,297.28,143.97,297.52z M143.25,294.9c-0.71-0.24-1.19-0.24-1.67-0.24h-0.24c-0.48,0-0.95,0-1.19,0
			c0,0,0,0-0.24,0c-0.48,0-0.71,0-1.19,0l0,0c-0.48,0-0.71,0.24-0.95,0.24c-0.48,0.24-0.95,0.48-1.43,0.72
			c-0.48,0.24-0.95,0.71-1.43,1.19c0,0-0.24,0-0.24,0.24l0,0c-0.71,0.71-1.43,0.95-1.91,1.19l0,0c-0.48,0.24-0.95,0.48-1.43,0.48
			h-0.24c-0.24,0-0.24,0-0.48,0.24c-0.24,0.24-0.71,0.24-0.95,0.48l0,0c-0.95,0.24-1.67,0.47-2.62,0.24c-0.24,0-0.71,0-0.95-0.24
			c-1.67-0.72-2.38-2.15-2.38-2.62c-0.24-0.95,0.24-1.19-0.24-2.62c0.48,0.24,0.95,0.24,1.67,0.24c0.48,0,1.19,0,1.91,0
			c0.24,0,0.24,0,0.48,0c0.24,0,0.48,0,0.72-0.24c0.48-0.24,0.95-0.48,1.19-0.72c0,0,0,0,0.24,0c0.71-0.24,1.43-0.71,2.15-0.95
			c0.24,0,0.71-0.24,0.95-0.24c0.48,0,0.95,0,1.43,0h1.43c0.95,0,1.91,0,2.86,0c0.24,0,0.24,0,0.48,0c0.24,0,0.24,0,0.48,0
			c0.24,0,0.48,0.24,0.72,0.24h0.24c0.24,0,0.48,0.24,0.95,0.48c0,0,0.24,0,0.24,0.24c0.24,0.24,0.48,0.24,0.72,0.48l0.24,0.24
			C142.78,294.42,143.02,294.66,143.25,294.9z M134.67,291.32c0-1.43,0-2.86,0-4.05c0.72,0.24,1.19,0.48,1.67,0.71
			c0,1.19,0,2.38,0,3.58L134.67,291.32z M142.54,293.23c-2.38-1.67-3.34-1.67-4.77-1.67c0-1.19,0-2.14,0-3.33c0.48,0,0.95,0,1.67,0
			C140.4,290.13,141.59,291.8,142.54,293.23z M151.6,275.35c-0.24,1.43-0.48,2.86-0.95,3.81c0,0.24-0.24,0.71-0.24,0.95l-0.24,0.48
			c-1.19,2.86-2.38,5.01-6.67,6.44c-0.48,0.24-1.19,0.24-1.67,0.24c-0.48,0-0.95,0-1.43,0l0,0c-0.48,0-1.19-0.24-1.67-0.24l0,0
			c-0.24,0-0.48,0-0.71-0.24l0,0c-0.24,0-0.48-0.24-0.95-0.24c-0.24,0-0.24,0-0.48-0.24l0,0c-1.91-0.48-3.1-1.43-3.58-2.62l0,0
			l-0.24-0.48c0,0,0,0,0-0.24c0.48,0.24,1.19,0.24,2.15,0.24c0.48,0,1.19,0,1.91,0c0.48,0,0.95-0.24,1.43-0.24l0,0h0.24
			c1.43-0.48,3.1-0.95,3.81-3.81c0.48-1.43,0.48-5.48,0.72-7.63c1.19,2.86,1.91,7.87,1.91,8.34l0.24,1.67c0,0,0.48-0.48,0.95-1.19
			c1.19-1.67,2.15-3.1,2.86-4.05l0,0c0.24-0.24,0.48-0.72,0.71-0.95l0,0l0,0c0.24-0.48,0.71-0.71,0.95-0.95l0,0
			c0.24-0.24,0.71-0.71,0.95-0.95C151.6,274.16,151.6,274.64,151.6,275.35z M67.46,313.73L67.46,313.73L67.46,313.73L67.46,313.73z"
			/>
		<g>
			<path class="st3" d="M51.96,239.12c-0.71,0.48-1.19-0.24-0.24-0.71c1.67-0.95,28.36-12.87,30.51-14.06
				c1.19-0.48,1.91,0.24,0.72,0.95C82.71,225.3,53.63,238.17,51.96,239.12z"/>
		</g>
		<g>
			<g>
				<path class="st3" d="M82.23,222.2c0,0,0.48,0.48,0,0.48c-0.71,0.24-9.3,0.48-9.53,0.48c-0.24,0-2.38,0.24-3.1,0.24
					c-1.43-0.24-0.48-0.48,0.24-0.72C72.46,222.67,81.52,221.96,82.23,222.2z"/>
			</g>
		</g>
		<g>
			<path class="st3" d="M138.96,238.88c0.72,0.48,1.19-0.24,0.24-0.71c-1.67-0.95-28.37-12.87-30.51-14.06
				c-1.19-0.71-1.91,0.24-0.71,0.95C107.98,225.3,137.3,238.17,138.96,238.88z"/>
		</g>
		<g>
			<g>
				<path class="st3" d="M109.41,222.2c0,0-0.48,0.48,0,0.48c0.71,0.24,9.06,0.48,9.53,0.48c0.24,0,2.38,0.24,3.1,0.24
					c1.43-0.24,0.48-0.48-0.24-0.48C120.85,222.67,110.6,221.72,109.41,222.2z"/>
			</g>
		</g>
		<path class="st3" d="M81.28,348.29v0.24c-0.24,0-0.48,0-0.48,0.48l-2.15,8.1c0,0.24,0,0.48,0.24,0.72v0.24l-3.34-0.95v-0.24
			c0.48,0,0.48,0,0.71-0.24l1.67-6.2c-0.24,0-0.95,0-1.19,0.24h-0.24l0.71-2.38h0.24c0,0.24,0.24,0.24,0.48,0.47
			c0.48,0,0.72,0,0.72-0.47c0-0.24,0-0.48-0.24-0.48v-0.24L81.28,348.29z"/>
		<path class="st3" d="M85.81,353.77c-0.95-0.48-1.67-1.43-1.43-2.15c0.24-1.43,1.91-2.62,4.53-2.38c3.1,0.24,4.53,1.67,4.29,2.86
			c0,0.95-0.95,1.67-1.91,2.15c1.43,0.47,1.91,1.43,1.91,2.62c-0.24,1.67-1.91,2.86-5.01,2.62c-3.1-0.24-4.77-1.91-4.77-3.33
			C83.67,354.96,84.62,354.01,85.81,353.77z M88.43,357.83c1.43,0,2.62-0.24,2.62-1.43c0-0.95-0.95-1.67-2.38-1.91
			c-1.43,0-2.62,0.24-2.62,1.43C85.81,357.11,87,357.59,88.43,357.83z M88.91,353.3c1.43,0.24,2.15-0.24,2.38-1.19
			c0-0.72-0.48-1.43-2.15-1.43c-1.43-0.24-2.15,0.24-2.38,1.19C86.76,352.58,87.24,353.06,88.91,353.3z"/>
		<path class="st3" d="M102.02,352.1l-0.24-0.24c0-0.48-0.95-1.19-2.15-0.95c-1.91,0-2.86,1.67-2.62,3.34
			c0.71-0.72,1.67-1.43,2.86-1.43c2.38,0,4.05,0.95,4.05,3.34c0,1.67-1.43,3.33-4.29,3.58c-3.34,0.24-5-2.15-5-4.53
			c-0.24-3.1,1.43-5.72,5-5.72c1.67,0,2.86,0.47,3.34,0.47c0.24,0,0.24,0,0.24-0.24h0.24L102.02,352.1z M101.78,356.16
			c0-0.95-1.19-1.91-2.38-1.67c-1.19,0-2.15,0.95-2.15,1.91c0,0.95,1.19,1.91,2.38,1.67C100.83,358.06,101.78,357.35,101.78,356.16z
			"/>
		<path class="st3" d="M107.02,353.3c-0.95,0-1.91-0.71-2.15-1.43c-0.48-1.43,0.71-3.1,3.58-3.81c2.86-0.95,4.77,0,5.24,1.19
			c0.24,0.95-0.24,1.91-1.19,2.62c1.43,0,2.38,0.71,2.62,1.91c0.48,1.67-0.71,3.33-3.81,4.29c-3.1,0.95-5.24,0-5.48-1.43
			C105.35,354.96,105.83,354.01,107.02,353.3z M109.65,351.63c1.43-0.48,1.91-1.19,1.67-1.91c-0.24-0.71-0.95-0.95-2.38-0.71
			c-1.43,0.48-1.91,1.19-1.67,1.91C107.26,351.87,108.22,352.1,109.65,351.63z M110.84,356.16c1.19-0.48,2.38-1.19,1.91-2.15
			c-0.24-0.95-1.67-1.19-2.86-0.71c-1.19,0.48-2.38,1.19-1.91,2.15C108.22,356.39,109.65,356.63,110.84,356.16z"/>
		<path class="st3" d="M60.78,305.62l2.62,0.95c0,0,0.24,0,0.24-0.24l0,0l-0.72,2.15l0,0c0-0.24,0-0.24,0-0.48l-4.05-1.19v-0.24
			c0.24,0,0.24,0,0.24-0.24l2.15-5.72c0,0,0-0.24-0.24-0.24v-0.24l1.67,0.48v0.24c-0.24,0-0.24,0-0.24,0.24L60.78,305.62z"/>
		<path class="st3" d="M68.41,308.48L68.41,308.48c0-0.24,0-0.24-0.24-0.48l-1.43-0.72l-0.72,0.95l2.38,1.43c0,0,0.24,0,0.24-0.24
			l0,0l-1.19,1.91l0,0c0-0.24,0-0.24,0-0.24l-3.1-2.14v-0.24c0.24,0,0.24,0,0.24,0l3.1-5.24v-0.24V303l3.58,2.14
			c0,0,0.24,0,0.24-0.24l0,0l-0.95,1.91l0,0c0.24-0.24,0.24-0.24,0-0.48l-2.38-1.43l-0.48,0.95l1.43,0.95c0.24,0,0.24,0,0.48-0.24
			l0,0L68.41,308.48z"/>
		<path class="st3" d="M69.84,312.77L69.84,312.77c0.24,0,0.48,0,0.48,0l3.58-3.58l-0.95-0.95c0,0-0.24,0-0.24,0.24l0,0l1.67-1.67
			l0,0c-0.48,0-0.48,0.23-0.48,0.23l3.1,2.86c0,0,0.24,0,0.48-0.24l0,0l-1.91,1.91l0,0c0.24-0.24,0.24-0.24,0.24-0.48l-0.95-0.95
			l-3.34,3.58c0,0-0.24,0.24,0,0.24l0,0L69.84,312.77z"/>
		<path class="st3" d="M74.85,319.45L74.85,319.45c0.24,0.24,0.24,0,0.48,0l4.53-2.14l-0.71-1.43c0,0,0,0-0.48,0l0,0l2.15-0.95l0,0
			c-0.24,0.24-0.24,0.24-0.24,0.24l1.67,3.81c0,0,0,0,0.48,0l0,0l-2.15,0.95l0,0c0.24-0.24,0.24-0.24,0.24-0.24l-0.72-0.96
			l-4.53,2.15c0,0-0.24,0,0,0.24h-0.24L74.85,319.45z"/>
		<path class="st3" d="M79.85,328.51c0,0-0.24,0.24,0,0.24h-0.24l-0.95-1.19h0.24c0.24,0.24,0.24,0.24,0.24,0l1.91-1.43l-1.19-1.67
			l-1.91,1.43c0,0-0.24,0.24,0,0.24H77.7l-0.95-1.43h0.24c0.24,0.24,0.24,0.24,0.24,0l5-3.58c0,0,0.24-0.24,0-0.24h0.24l0.95,1.43
			h-0.24c-0.24-0.24-0.24-0.24-0.24,0l-1.91,0.95l1.19,1.67l1.67-1.19c0,0,0.24-0.24,0-0.24h0.24l0.95,1.43h-0.24
			c-0.24-0.24-0.24-0.24-0.24,0L79.85,328.51z"/>
		<path class="st3" d="M85.81,330.41L85.81,330.41c0-0.24,0-0.24,0-0.48l-1.19-0.95l-0.72,0.95l2.15,1.67c0,0,0.24,0,0.48-0.24l0,0
			l-1.43,1.91l0,0c0-0.24,0-0.24,0-0.24l-3.34-2.38l0,0c0.24,0,0.24,0,0.24,0l3.58-5.01v-0.23v-0.24l3.34,2.38c0,0,0.24,0,0.24-0.24
			l0,0l-1.43,1.91l0,0c0.24-0.24,0.24-0.24,0-0.48l-1.91-1.67l-0.72,0.95l1.19,0.95c0.24,0,0.24,0,0.48,0l0,0L85.81,330.41z"/>
		<path class="st3" d="M88.67,334.23c0,0,0,0.24,0.24,0.24v0.24l-1.67-0.48v-0.24c0.24,0,0.24,0,0.24-0.24l1.91-5.72
			c0-0.24,0-0.24-0.24-0.24v-0.24l2.86,0.95c1.19,0.48,1.43,1.19,0.95,2.62c-0.48,1.19-0.95,1.67-1.91,1.67l0.24,2.38
			c0,0.24,0,0.24,0.24,0.24v0.24l-1.67-0.48v-0.24c0,0,0.24,0,0.24-0.24c0,0-0.24-2.15-0.24-2.38l-0.71-0.24L88.67,334.23z
			 M89.86,330.89l1.43,0.48c0.48,0.24,0.71-0.24,0.95-0.48c0-0.47,0-0.72-0.48-0.95l-1.43-0.48L89.86,330.89z"/>
		<path class="st3" d="M97.73,333.75L97.73,333.75c0-0.24-0.24-0.24-0.24-0.24h-1.67v1.19l2.62,0.24c0,0,0.24,0,0.24-0.48l0,0
			l-0.24,2.15l0,0c0-0.24,0-0.24-0.24-0.24l-4.29-0.24v-0.24c0.24,0,0.24,0,0.24-0.24l0.48-5.96c0,0,0-0.24-0.24-0.24v-0.24
			l4.29,0.24c0,0,0.24,0,0.24-0.24l0,0l-0.24,2.15l0,0c0-0.24,0-0.48-0.24-0.48l-2.62-0.24v1.19h1.67c0.24,0,0.24,0,0.24-0.24l0,0
			L97.73,333.75L97.73,333.75z"/>
		<path class="st3" d="M102.26,329.46c0,0,0-0.24-0.24-0.24v-0.24l3.1-0.95c0.95-0.24,1.67,0,2.15,1.19c0.24,0.72,0,1.19-0.48,1.67
			l0,0c0.71,0,1.19,0.48,1.43,1.19c0.24,0.95,0,1.91-0.95,2.38l-3.1,0.95v-0.24c0.24,0,0.24-0.24,0.24-0.24L102.26,329.46z
			 M104.16,331.13l1.19-0.24c0.71-0.24,0.95-0.24,0.71-0.95c-0.24-0.48-0.24-0.48-0.95-0.24l-1.19,0.24L104.16,331.13z
			 M105.12,333.99l1.43-0.48c0.48-0.24,0.72-0.48,0.48-0.95c-0.24-0.48-0.48-0.71-0.95-0.48l-1.43,0.48L105.12,333.99z"/>
		<path class="st3" d="M112.51,329.7L112.51,329.7c-0.24,0-0.24-0.24-0.48,0l-1.43,0.71l0.48,1.19l2.38-1.19c0,0,0,0,0-0.48l0,0
			l0.95,1.91l0,0c-0.24-0.24-0.24-0.24-0.24-0.24l-3.81,1.91v-0.24c0.24,0,0.24-0.24,0-0.24l-2.86-5.48c0,0,0-0.24-0.24,0v-0.24
			l3.81-1.91c0,0,0,0,0-0.48l0,0l0.95,1.91l0,0c-0.24-0.24-0.24-0.24-0.24-0.24l-2.38,1.19l0.48,0.95l1.43-0.72
			c0.24,0,0.24-0.24,0-0.48l0,0L112.51,329.7z"/>
		<path class="st3" d="M110.36,307.05l2.86,0.72c0,0,0.24,0,0.24-0.24l0,0l-0.48,2.15l0,0c0-0.24,0-0.24,0-0.48l-4.29-0.95v-0.24
			c0.24,0,0.24,0,0.24-0.24l1.43-5.96c0,0,0-0.24-0.24-0.24v-0.24l1.67,0.48v0.24c-0.24,0-0.24,0-0.24,0.24L110.36,307.05z"/>
		<path class="st3" d="M114.17,309.91L114.17,309.91c0.24,0,0.24-0.24,0.48-0.24l2.38-5.72c0,0,0-0.24-0.24-0.24v-0.24l1.67,0.72
			v0.23c-0.24,0-0.24,0-0.24,0.24l-2.38,5.72c0,0,0,0.24,0.24,0.24v0.24L114.17,309.91z"/>
		<path class="st3" d="M122.76,310.15l-1.19-0.24c0,0-0.24,0-0.24,0.24l0,0l0.48-1.67l0,0c0,0.24,0,0.24,0,0.24l2.38,0.72v0.23
			c0,0-0.24,0-0.24,0.24l-0.48,1.67c0,0.24,0,0.24,0,0.24l0,0v0.24c-0.95,0.48-1.91,0.48-2.86,0.24c-1.43-0.48-2.38-1.91-1.67-4.05
			c0.72-2.38,2.15-3.1,3.58-2.62c0.48,0.24,0.71,0.24,1.19,0.71c0.24,0.24,0.48,0.48,0.48,0.48s0,0,0.24,0l0,0l-0.95,1.43l0,0
			c0,0,0,0,0-0.24s-0.72-0.72-1.43-0.95c-0.71-0.24-1.67,0.24-1.91,1.67c-0.48,1.43,0.24,2.15,0.95,2.38c0.48,0.24,0.72,0.24,1.19,0
			L122.76,310.15z"/>
		<path class="st3" d="M130.86,313.25c0,0,0,0.24,0.24,0.24v0.24l-1.67-0.24v-0.24c0.24,0,0.24,0,0.24-0.24l0.24-2.38l-2.15-0.24
			l-0.24,2.38c0,0,0,0.24,0.24,0.24v0.24h-1.67v-0.24c0.24,0,0.24,0,0.24-0.24l0.48-5.96c0,0,0-0.24-0.24-0.24v-0.24h1.67v0.24
			c-0.24,0-0.24,0-0.24,0.24l-0.24,2.15l2.15,0.24l0.24-2.15c0-0.24,0-0.24-0.24-0.24v-0.24h1.67v0.24c-0.24,0-0.24,0-0.24,0.24
			L130.86,313.25z"/>
		<path class="st3" d="M135.15,313.25L135.15,313.25c0.24-0.24,0.24-0.24,0.24-0.48l-0.72-4.77l-1.43,0.24c0,0,0,0,0,0.48l0,0
			l-0.48-2.38l0,0c0,0.24,0,0.24,0.24,0.24l4.05-0.72c0,0,0,0,0-0.47l0,0l0.48,2.38l0,0c0-0.24,0-0.24-0.24-0.24l-1.43,0.24
			l0.71,4.77c0,0.24,0,0.24,0.24,0.24v0.24L135.15,313.25z"/>
		<path class="st3" d="M50.06,329.94L50.06,329.94c-0.48,0-0.72,0-0.95,0.24l-5.24,5.48l1.91,1.91c0.48,0.47,0.48,0.47,0.95,0.24
			l0.24,0.24l-1.67,1.67l-0.24-0.24c0.24-0.24,0-0.48-0.24-0.71l-5.72-5.48c-0.48-0.48-0.48-0.48-0.71-0.24l-0.24-0.24l1.67-1.67
			l0.24,0.24c-0.24,0.24-0.24,0.48,0.24,0.95l1.91,1.91l5.24-5.48c0.24-0.24,0.24-0.48,0-0.72l0.24-0.24L50.06,329.94z"/>
		<path class="st3" d="M37.9,323.5l3.1-2.15c0.24-0.24,0.24-0.24,0-0.72l0.24-0.24l2.15,2.86l-0.24,0.24
			c-0.24-0.48-0.48-0.48-0.71-0.24l-6.91,4.77c-0.24,0.24-0.24,0.24,0,0.72l-0.24,0.24l-2.15-2.86l0.24-0.24
			c0.24,0.48,0.48,0.48,0.71,0.24l2.62-1.91l-2.86-4.05l-2.62,1.91c-0.24,0.24-0.24,0.24,0,0.72l-0.24,0.24l-2.15-2.86l0.24-0.24
			c0.24,0.48,0.48,0.48,0.71,0.24l6.91-4.77c0.24-0.24,0.24-0.24,0-0.72l0.24-0.24l2.15,2.86l-0.24,0.24
			c-0.24-0.48-0.48-0.48-0.71-0.24l-3.1,2.15L37.9,323.5z"/>
		<path class="st3" d="M32.89,309.68l-2.15-5.01c-0.24-0.47-0.24-0.71-0.71-0.47l-0.24-0.24l2.15-0.95l0.24,0.24
			c-0.24,0.24-0.24,0.48,0,0.95l3.34,7.63h-0.24c-0.24-0.48-0.48-0.71-0.71-0.48l-7.87,3.58c-0.24,0.24-0.24,0.24-0.24,0.95h-0.24
			l-3.34-7.39c-0.24-0.48-0.24-0.72-0.71-0.48l-0.24-0.24l2.15-0.95l0.24,0.24c-0.24,0.24-0.24,0.48,0,0.95l2.15,4.53l2.15-0.95
			l-1.19-2.62c-0.24-0.48-0.24-0.72-0.71-0.48l-0.24-0.24l2.15-0.95l0.24,0.24c-0.24,0.24-0.24,0.48,0,0.95l1.19,2.62L32.89,309.68z
			"/>
		<path class="st3" d="M17.64,284.17h0.24c0,0.48,0.24,0.48,0.48,0.48l5.72-0.24c1.19,0,2.15-0.95,2.15-2.62
			c0-1.67-0.95-2.62-2.15-2.62l-5.72,0.24c-0.24,0-0.48,0.24-0.48,0.48h-0.24v-3.34h0.24c0,0.48,0.24,0.71,0.48,0.48l5.72-0.24
			c2.38,0,3.81,1.19,4.05,4.77c0,3.58-1.43,5.01-3.58,5.01l-5.72,0.24c-0.24,0-0.48,0.24-0.48,0.72h-0.24L17.64,284.17z"/>
		<path class="st3" d="M27.65,273.44h-0.24c0-0.48,0-0.48-0.48-0.71l-8.34-1.43c-0.24,0-0.48,0-0.48,0.48h-0.24l0.71-3.81h0.24
			c0,0.24,0,0.48,0,0.48c0.24,0,5.96-3.1,6.91-3.34l0,0l-5.96-0.95c-0.24,0-0.48,0-0.48,0.48h-0.24l0.24-3.1h0.24
			c0,0.48,0,0.48,0.48,0.48l8.34,1.43c0.48,0,0.48,0,0.48-0.24h0.24l-0.48,3.34h-0.24c0-0.24,0-0.48-0.24-0.48
			c-0.24,0-5.72,3.1-7.39,3.58l0,0l6.44,0.95c0.24,0,0.48,0,0.48-0.48h0.24L27.65,273.44z"/>
		<path class="st3" d="M30.27,259.86h-0.24c0.24-0.71,0-0.71-0.24-0.95l-8.1-2.62c-0.24,0-0.48,0-0.71,0.71h-0.24l1.19-3.81h0.24
			c-0.24,0.71,0,0.71,0.24,0.95l8.1,2.62c0.24,0,0.48,0,0.72-0.48h0.24L30.27,259.86z"/>
		<path class="st3" d="M33.85,250.56L33.85,250.56c0-0.48-0.24-0.71-0.24-0.71c-0.24,0-6.67-0.24-9.06-0.48
			c-0.48,0-0.71,0-0.95,0.24h-0.24l1.43-2.86h0.24c0,0.48,0,0.48,0,0.48c0.24,0.24,5.01,0.24,7.39,0.48l0,0
			c-1.67-1.91-4.77-5.24-5-5.48c0,0-0.24,0-0.48,0.48h-0.24l1.43-2.86l0.24,0.24c0,0.48,0,0.48,0.48,0.95
			c2.15,2.38,5.72,6.44,6.2,6.67c0.24,0,0.24,0,0.48-0.24l0.24,0.24L33.85,250.56z"/>
		<path class="st3" d="M39.09,238.65l3.34-4.29c0.24-0.48,0.48-0.71,0.24-0.95l0.24-0.24l1.91,1.43l-0.24,0.24
			c-0.24,0-0.48,0-0.72,0.48l-5,6.67h-0.71c0.24-0.48,0.24-0.71,0-0.95l-6.91-5.24c-0.24-0.24-0.48-0.24-0.95,0.24l-0.24-0.24
			l5-6.44c0.24-0.48,0.48-0.72,0.24-0.95l0.24-0.24l1.91,1.43l-0.24,0.24c-0.24,0-0.48,0-0.71,0.48l-3.1,4.05l1.91,1.43l1.91-2.38
			c0.24-0.48,0.48-0.71,0.24-0.95l0.24-0.24l1.91,1.43l-0.24,0.24c-0.24,0-0.48,0-0.71,0.48l-1.91,2.38L39.09,238.65z"/>
		<path class="st3" d="M46.48,231.97L46.48,231.97c0-0.48,0-0.72-0.24-0.95l-5.72-6.2c-0.24-0.24-0.48-0.24-0.71,0l-0.24-0.24
			l4.29-3.81c1.91-1.67,3.81-1.91,5.01-0.72c0.95,1.19,0.95,2.38,0,3.81l3.34,0.95c0.95,0.24,1.19,0.48,1.67,0.24l0.24,0.24
			l-2.62,2.38l-0.24-0.24c0.24-0.24,0.24-0.48,0.24-0.48s-0.24-0.24-0.71-0.24l-3.58-0.95l-1.67,1.43l2.38,2.62
			c0.24,0.24,0.48,0.24,0.71,0l0.24,0.24L46.48,231.97z M44.81,225.77l1.91-1.91c0.95-0.95,1.19-1.67,0.72-2.38
			c-0.48-0.71-1.43-0.48-2.38,0.48l-2.15,1.91L44.81,225.77z"/>
		<path class="st3" d="M56.02,220.29h0.24v0.24c0.24,0.48,2.15,0,3.34-0.71c1.91-1.19,2.15-1.91,1.67-2.86
			c-1.19-1.91-6.67,3.1-8.58,0.24c-0.72-1.19-0.24-3.1,2.38-4.77c0.95-0.71,1.91-0.95,2.62-1.19C58.4,211,58.88,211,58.88,211
			c0.24-0.24,0.24-0.24,0.24-0.48h0.24l0.24,2.86h-0.24c0,0,0-0.24-0.24-0.24c-0.24-0.48-1.43-0.48-3.1,0.48
			c-1.19,0.71-1.43,1.43-0.95,1.91c0.95,1.67,6.67-3.34,8.58,0c0.71,1.43,0.24,3.58-2.86,5.48c-0.95,0.48-1.91,0.95-2.62,0.95
			c-0.72,0.24-1.19,0.24-1.43,0.48c-0.24,0-0.24,0.24-0.24,0.48h-0.24L56.02,220.29z"/>
		<path class="st3" d="M67.93,217.19v-0.24c0.71-0.24,0.71-0.48,0.48-0.71l-3.1-7.87c0-0.24-0.24-0.48-0.95-0.24v-0.24l3.58-1.43
			v0.24c-0.72,0.24-0.72,0.48-0.48,0.71l3.1,7.87c0,0.24,0.24,0.48,0.95,0.24v0.24L67.93,217.19z"/>
		<path class="st3" d="M77.47,213.85v-0.24c0.24-0.24,0.48-0.24,0.24-0.48l-1.91-7.39l-2.62,0.71c-0.48,0.24-0.71,0.24-0.71,0.72
			h-0.24l-0.48-2.38h0.24c0.24,0.24,0.24,0.24,0.95,0.24l7.63-1.91c0.48-0.48,0.48-0.71,0.48-0.95h0.24l0.48,2.38h-0.24
			c-0.24-0.24-0.24-0.48-0.95-0.24l-2.62,0.72l1.91,7.39c0,0.24,0.24,0.48,0.71,0.24v0.24L77.47,213.85z"/>
		<path class="st3" d="M92.96,211.47l-3.58,0.24v-0.24c0.48,0,0.48-0.24,0.48-0.48l-0.24-3.34l-3.81-5.24
			c-0.24-0.24-0.24-0.24-0.71-0.48v-0.24l3.58-0.24v0.24c-0.24,0-0.48,0.24-0.48,0.24c0,0.24,1.67,2.15,2.62,3.34
			c0.95-0.95,2.38-3.1,2.38-3.34c0-0.24-0.24-0.24-0.48-0.24v-0.24l3.34-0.24v0.24c-0.24,0-0.48,0.24-0.48,0.48l-3.34,5.48
			l0.24,3.34c0,0.24,0.24,0.48,0.48,0.48L92.96,211.47L92.96,211.47z"/>
		<path class="st3" d="M120.85,205.27c3.34,1.19,4.53,4.05,3.58,6.67c-0.95,2.62-3.58,4.29-6.91,3.1c-3.34-1.19-4.53-4.05-3.58-6.67
			C114.65,205.75,117.27,204.08,120.85,205.27z M117.99,213.62c1.91,0.71,3.58-0.24,4.29-2.38c0.72-2.15,0-3.81-1.91-4.29
			c-1.91-0.71-3.58,0-4.29,2.15C115.13,211.23,115.84,212.9,117.99,213.62z"/>
		<path class="st3" d="M124.9,217.91L124.9,217.91c0.72,0,0.95,0,0.95-0.24l4.05-7.39c0.24-0.24,0-0.48-0.48-0.71l0.24-0.24
			l7.15,4.05c0.48,0.24,0.72,0.24,0.72,0l0.24,0.24l-1.19,1.91l-0.24-0.24c0-0.24,0-0.48-0.48-0.72l-4.53-2.38l-1.19,2.15l2.86,1.43
			c0.48,0.24,0.71,0.24,0.95,0l0.24,0.24l-1.19,1.91l-0.24-0.24c0-0.24,0-0.48-0.48-0.71l-2.86-1.43l-1.67,3.1
			c-0.24,0.24,0,0.48,0.48,0.71l-0.24,0.24L124.9,217.91z"/>
		<path class="st3" d="M158.27,233.88l-2.86,0.24v-0.24c0,0,0,0,0.24,0c0.48-0.48,0.24-1.67-0.48-2.62
			c-1.43-1.67-3.1-2.15-5.01-0.48c-1.43,1.19-1.67,3.34-0.48,5.01c0.95,0.95,2.15,1.43,2.62,0.95l0.24-0.24l0.24,0.24l-0.24,2.86
			h-0.24c0-0.24,0-0.24,0-0.48c-0.24-0.48-1.91,0-3.81-2.38c-2.38-2.62-1.91-5.72,0.24-7.63c2.62-2.38,5.96-1.19,7.87,1.19
			c0.71,0.72,0.95,1.67,1.19,2.15c0.24,0.48,0.24,0.95,0.24,1.19C157.79,233.64,158.03,233.64,158.27,233.88L158.27,233.88z"/>
		<path class="st3" d="M152.31,241.5L152.31,241.5c0.48,0.24,0.71,0,0.95,0l8.82-0.95c0.48,0,0.48,0,0.71-0.24c0,0,0.24-0.24,0-0.48
			l0.24-0.24l1.91,3.34l-0.48,0.48c-0.24-0.24-0.24-0.48-0.48-0.24c0,0-0.24,0.24-0.48,0.72l-5.24,6.67
			c-0.24,0.24-0.24,0.48-0.24,0.71l-0.24,0.24l-1.43-2.86l0.24-0.24c0.24,0.24,0.24,0.24,0.48,0.24c0,0,0.24,0,0.24-0.24l1.19-1.43
			l-2.15-3.57l-1.67,0.24c-0.24,0-0.24,0-0.24,0c-0.24,0-0.24,0.24,0,0.72l-0.24,0.24L152.31,241.5z M158.99,245.79l2.86-3.34l0,0
			l-4.29,0.71L158.99,245.79z"/>
		<path class="st3" d="M167.33,250.8c0.24,0,0.48-0.24,0.24-0.71h0.24l1.19,3.58h-0.24c-0.24-0.71-0.48-0.71-0.71-0.48l-7.15,2.38
			l1.67,4.77c0.24,0.48,0.24,0.71,0.71,0.71v0.24l-2.38,0.71v-0.24c0.24-0.24,0.24-0.24,0-0.95l-2.62-7.63h0.24
			c0.24,0.48,0.48,0.48,0.71,0.48L167.33,250.8z"/>
		<path class="st3" d="M161.85,264.15h0.24c0.24,0.71,0.24,0.71,0.71,0.71l8.34-1.67c0.24,0,0.48-0.24,0.24-0.95h0.24l0.71,3.81
			h-0.24c-0.24-0.72-0.24-0.72-0.72-0.72l-8.34,1.67c-0.24,0-0.48,0.24-0.24,0.95h-0.24L161.85,264.15z"/>
		<path class="st3" d="M163.04,270.82h0.24c0,0.71,0.24,0.71,0.48,0.71l8.58-0.48c0.24,0,0.48-0.24,0.48-0.71h0.24l0.48,8.1
			c0,0.48,0,0.71,0.48,0.71v0.24l-2.38,0.24v-0.24c0.24,0,0.24-0.24,0.24-0.71l-0.24-5l-2.38-0.24l0.24,3.1c0,0.48,0,0.71,0.48,0.71
			v0.24l-2.38,0.24v-0.24c0.24,0,0.24-0.24,0.24-0.71l-0.24-3.1l-3.57,0.24c-0.24,0-0.48,0.24-0.48,0.95h-0.24L163.04,270.82z"/>
		<path class="st3" d="M173.05,288.94c-0.48,3.58-2.86,5.24-5.72,5.01c-2.86-0.24-4.77-2.62-4.29-6.2c0.48-3.57,2.86-5.24,5.72-5
			C171.62,282.98,173.53,285.36,173.05,288.94z M164.47,287.98c-0.24,2.15,0.95,3.34,3.1,3.58c2.15,0.24,3.58-0.71,3.81-2.86
			c0.24-2.15-0.95-3.34-3.1-3.58C166.14,284.89,164.95,285.84,164.47,287.98z"/>
		<path class="st3" d="M161.61,296.33h0.24c0,0.48,0,0.48,0.24,0.72l8.1,2.86c0.24,0,0.48,0,0.71-0.47h0.24l-1.91,5.72
			c-0.95,2.38-2.38,3.58-4.05,3.1c-1.43-0.48-2.15-1.67-1.91-3.34l-3.34,0.72c-0.95,0.24-1.43,0.24-1.43,0.71h-0.24l1.19-3.33h0.24
			c0,0.24,0,0.47,0,0.47s0.24,0,0.71,0l3.58-0.71l0.71-1.91l-3.1-1.19c-0.24,0-0.48,0-0.71,0.48h-0.24L161.61,296.33z
			 M166.14,300.86l-0.95,2.62c-0.48,1.43-0.24,2.15,0.71,2.38c0.72,0.24,1.43-0.24,1.91-1.43l0.95-2.62L166.14,300.86z"/>
		<path class="st3" d="M157.08,309.2L157.08,309.2c0,0.48,0,0.71,0.48,0.95l7.39,4.29c0.24,0.24,0.48,0,0.72-0.24l0.24,0.24
			l-1.91,3.34l-0.24-0.24c0.24-0.24,0.24-0.48,0-0.48c-0.24-0.24-6.67,0.71-7.63,0.48l0,0l5.24,3.1c0.24,0.24,0.48,0,0.71-0.24
			l0.24,0.24l-1.67,2.86l-0.24-0.24c0.24-0.48,0-0.48-0.24-0.72l-7.39-4.29c-0.24-0.24-0.48,0-0.71,0.24l-0.24-0.24l1.67-2.86
			l0.24,0.24c0,0.24-0.24,0.48,0,0.48c0.24,0.24,6.44-0.95,8.34-0.72l0,0l-5.72-3.34c-0.24-0.24-0.48-0.24-0.72,0.24l-0.24-0.24
			L157.08,309.2z"/>
		<path class="st3" d="M149.69,320.88L149.69,320.88c-0.24,0.71-0.24,0.95,0,1.19l6.67,5.24c0.24,0.24,0.48,0.24,0.95-0.24
			l0.24,0.24l-2.38,3.1l-0.24-0.24c0.48-0.48,0.48-0.71,0-0.95l-6.67-5.24c-0.24-0.48-0.48-0.48-0.95,0l-0.24-0.24L149.69,320.88z"
			/>
		<path class="st3" d="M145.64,325.65L145.64,325.65c0,0.47,0,0.71,0.24,0.95l3.1,8.34c0.24,0.24,0.24,0.48,0.24,0.72
			c0,0,0.24,0,0.48-0.24l0.24,0.24l-2.86,2.62l-0.24-0.24c0.24-0.24,0.24-0.47,0.24-0.47s-0.24-0.24-0.71-0.48l-8.1-3.58
			c-0.24-0.24-0.48-0.24-0.71,0l-0.24-0.24l2.38-2.14l0.24,0.24c-0.24,0.24-0.24,0.24-0.24,0.48c0,0,0.24,0,0.24,0.24l1.67,0.72
			l3.1-2.86l-0.24-1.67c0-0.24,0-0.24-0.24-0.24c0-0.24-0.24-0.24-0.71,0l-0.24-0.24L145.64,325.65z M143.25,333.27l3.81,1.91l0,0
			l-1.67-4.05L143.25,333.27z"/>
		<circle class="st3" cx="24.55" cy="294.9" r="1.67"/>
		<path class="st3" d="M53.39,338.52c-0.95,0-1.67,0.72-1.67,1.67c0,0.95,0.71,1.67,1.67,1.67s1.67-0.72,1.67-1.67
			C55.06,339.23,54.35,338.52,53.39,338.52z"/>
		<path class="st3" d="M72.46,349.24c-0.95,0-1.67,0.71-1.67,1.67c0,0.95,0.71,1.67,1.67,1.67s1.67-0.71,1.67-1.67
			C73.89,349.96,73.18,349.24,72.46,349.24z"/>
		<circle class="st3" cx="118.23" cy="350.2" r="1.67"/>
		<path class="st3" d="M134.44,339.23c-0.95,0-1.67,0.72-1.67,1.67c0,0.95,0.71,1.67,1.67,1.67c0.95,0,1.67-0.72,1.67-1.67
			C136.1,339.95,135.39,339.23,134.44,339.23z"/>
		<circle class="st3" cx="142.54" cy="223.39" r="1.67"/>
		<circle class="st3" cx="105.83" cy="207.18" r="1.67"/>
		<g>
			<path class="st3" d="M75.56,303c0.24,0,1.91,0,2.15,0c0.24,0,1.67,0,2.62,0.24c0.24,0,0.48,0.95,0,0.95
				c-2.38-0.24-1.43,0-3.58-0.24C74.61,303.72,75.56,303,75.56,303z"/>
			<path class="st3" d="M83.67,303.24c0.71,0,6.91,0.71,7.15,1.19c0,0,0.24,0.24,0,0.48c-0.48,0.72-1.67-0.48-5.96-0.71
				c-0.95-0.24-2.15,0-2.15-0.48C83.19,303.48,83.43,303.48,83.67,303.24z"/>
		</g>
		<g>
			<g>
				<path class="st3" d="M70.79,253.66c-0.24,0.24-0.24,1.19-0.48,1.43c0,0.24-0.95,0-0.71-0.24c0,0,0.24-1.67,0.48-2.15
					c-0.24,0,1.91,0,1.67,0c0-0.24-0.48-1.91-0.48-1.91c-0.24,0-0.48,2.15-0.48,2.15h-0.71c0,0,0.48-3.57,1.19-3.57
					c0.24,0,0.48-0.24,0.71,0c0.24,0.48,1.67,5,1.67,5.48c-0.24,0.24-0.95,0.48-0.95,0c0,0,0-0.95-0.24-1.19
					C71.98,253.66,71.27,253.42,70.79,253.66z"/>
			</g>
		</g>
		<g>
			<path class="st3" d="M75.56,267.01c-0.24,0.72-1.67,0.24-2.38,0.24c-2.38,0-5,0.24-5-0.24c-0.24-0.95,2.86-0.71,4.05-0.71
				C73.65,266.53,75.8,266.29,75.56,267.01z"/>
			<path class="st3" d="M79.14,267.01c-0.24,0.48-0.95,0.48-1.91,0.24c-0.24,0-0.48,0-0.48-0.24c0-0.71,0.95-0.48,2.15-0.48
				C79.14,266.53,79.38,266.77,79.14,267.01z"/>
			<path class="st3" d="M83.67,267.25c-0.24,0.24-2.86,0.48-2.86-0.24c-0.24-0.48,0.95-0.71,2.15-0.71
				C84.14,266.53,83.9,267.01,83.67,267.25z"/>
			<path class="st3" d="M92.25,268.92c-0.24,0.24-3.1-1.19-4.29-1.43c-0.95-0.24-1.67,0-2.38,0c-0.48,0-0.24-0.71,0.24-0.71
				C87.24,266.06,92.72,268.44,92.25,268.92z"/>
		</g>
		<g>
			<path class="st3" d="M74.13,271.54c-0.24,0.48-1.67,0.24-2.38,0.24c-2.38,0-3.34,0-3.34-0.71s1.19-0.24,2.38-0.24
				C72.22,270.82,74.37,270.58,74.13,271.54z"/>
			<path class="st3" d="M80.09,271.54c-0.24,0.71-1.67,0.24-2.62,0.24c-2.38,0-2.38,0-2.38-0.24c0-0.48,0.24-0.71,1.43-0.71
				C78.18,271.06,80.33,270.58,80.09,271.54z"/>
			<path class="st3" d="M84.14,271.54c-0.24,0.48-0.95,0.24-1.91,0.24c-0.24,0-0.48,0-0.48-0.24c0-0.71,0.95-0.48,2.15-0.48
				C84.14,271.06,84.38,271.3,84.14,271.54z"/>
			<path class="st3" d="M92.25,273.44c-0.24,0.72-1.43-0.48-2.86-0.95c-0.95-0.24-3.1-0.24-3.81-0.48c-0.48,0-0.48-0.72,0-0.72
				C88.43,270.82,92.48,272.73,92.25,273.44z"/>
		</g>
		<g>
			<path class="st3" d="M92.72,277.97c0,0.95-1.91-0.24-3.1-0.48c-0.95-0.24-2.62-0.24-4.05-0.24c-0.48,0-0.48-0.71,0-0.95
				C86.52,276.31,92.72,277.26,92.72,277.97z"/>
			<path class="st3" d="M83.19,276.78c-0.24,0.48-1.19,0.24-2.15,0.24c-0.24,0-0.48-0.24-0.71-0.48c0-0.48,0.48-0.71,1.67-0.71
				C83.43,275.83,83.43,276.54,83.19,276.78z"/>
			<path class="st3" d="M74.85,276.54c-0.24,0.48-1.91,0.24-2.62,0c-2.38-0.48-4.05,0.71-4.29-0.24c0-0.72,2.15-0.48,3.34-0.48
				C72.94,275.83,75.32,275.59,74.85,276.54z"/>
			<path class="st3" d="M78.9,276.54c-0.24,0.48-0.95,0.48-1.91,0.48c-0.24,0-0.48,0-0.72-0.24c0-0.72,0.95-0.72,2.15-0.72
				C78.9,276.07,79.14,276.31,78.9,276.54z"/>
		</g>
		<g>
			<path class="st3" d="M81.04,247.94c0,0.71-1.67,0.24-2.86,0.48c-2.38,0.24-2.62,0.48-2.38,0
				C76.51,247.23,81.04,246.99,81.04,247.94z"/>
			<path class="st3" d="M82.47,248.18c-0.24,0-0.24-0.24,0-0.72c0.95-0.71,2.38,0,2.62,0.24c0.24,0.48-0.24,0.71-0.48,0.71
				C84.38,248.42,82.95,248.42,82.47,248.18z"/>
			<path class="st3" d="M92.01,250.56c-0.24,0.24-1.91-0.95-2.86-1.19c-1.43-0.48-2.86-0.48-2.86-1.19
				C86.29,246.75,93.2,249.37,92.01,250.56z"/>
		</g>
		<g>
			<path class="st3" d="M80.57,257.71c-0.24,0.24-1.43,0-2.38,0c-0.95,0-1.91,0.24-1.91-0.24s1.19-0.48,2.38-0.48
				C79.85,257,81.04,257,80.57,257.71z"/>
			<path class="st3" d="M81.76,257.95c-0.48,0-0.24-0.48,0-0.72c1.19-0.24,2.38,0,2.86,0c0.48,0,0.24,0.72,0,0.72
				C82.23,257.95,82.47,257.95,81.76,257.95z"/>
			<path class="st3" d="M92.01,260.1c-0.24,0.24-1.43-0.48-2.38-0.72c-0.95-0.24-1.43-0.24-1.67-0.48c-0.48-0.24-0.24-0.71,0-0.71
				C88.19,257.95,92.96,259.14,92.01,260.1z"/>
			<path class="st3" d="M87,257.95c0,0.71-0.95,0.48-1.19,0.48c-0.24,0-0.24-0.48-0.24-0.72C86.05,257.24,87,257.71,87,257.95z"/>
		</g>
		<g>
			<path class="st3" d="M77.71,253.19c0.24,0.71-0.95,0.71-1.19,0.71c-0.24,0-0.24-0.48-0.24-0.71
				C76.75,252.71,77.47,252.95,77.71,253.19z"/>
			<path class="st3" d="M79.61,253.42c-0.24,0-0.24-0.48,0-0.71c0.95-0.48,3.58-0.24,4.05,0c0.71,0.48,0.24,0.95,0,0.95
				C82,253.42,80.09,253.66,79.61,253.42z"/>
			<path class="st3" d="M89.62,254.62c-0.24,0.24-2.15-0.48-3.1-0.48c-0.95,0-1.67-0.24-1.67-0.48c0-0.72,1.67-0.48,2.86-0.24
				C89.15,253.66,90.34,253.9,89.62,254.62z"/>
			<path class="st3" d="M92.01,255.09c0,0.72-0.71,0.48-1.19,0.24c-0.24,0-0.48-0.48-0.24-0.71
				C91.05,254.38,92.25,254.85,92.01,255.09z"/>
		</g>
		<g>
			<path class="st3" d="M68.65,261.53c1.43-0.24,2.38,1.43,0.24,1.19c-0.72,0-0.72-0.24-0.72-0.48
				C68.17,261.77,68.17,261.53,68.65,261.53z"/>
			<path class="st3" d="M78.9,262c-0.24,0.71-3.1,0.48-4.05,0.48c-2.38,0-3.1,0-3.34-0.24c0-0.72,1.19-0.48,2.38-0.48
				C74.85,261.53,79.14,261.05,78.9,262z"/>
			<path class="st3" d="M83.67,262.48c-0.24,0.24-0.48,0-1.43,0.24c-0.95,0-1.67,0-1.67-0.48c0-0.72,0.95-0.72,2.15-0.72
				S83.9,262,83.67,262.48z"/>
			<path class="st3" d="M89.62,263.43c-0.71,0.48-0.95-0.24-2.38-0.48c-0.95-0.24-1.91,0-2.62-0.24c-0.48-0.24-0.24-0.71,0.24-0.95
				C87.72,261.53,90.34,262.96,89.62,263.43z"/>
			<path class="st3" d="M91.77,264.39c0,0.71-0.48,0.71-1.19,0.24c-0.24,0-0.48-0.48-0.24-0.71
				C90.81,263.67,91.53,263.91,91.77,264.39z"/>
		</g>
		<g>
			<path class="st3" d="M91.77,282.5c-0.24,0.71-2.38-0.48-4.05-0.48c-0.95,0-1.67,0-1.67,0c-0.48,0-0.48-0.71,0-0.95
				C87.72,280.83,92.01,281.55,91.77,282.5z"/>
			<path class="st3" d="M81.52,281.55c-0.24,0.47-0.95,0.24-1.91,0.24c-0.24,0-1.43,0.24-1.91,0c-0.24-0.71,1.67-0.71,2.15-0.71
				C81.28,280.83,81.76,281.31,81.52,281.55z"/>
			<path class="st3" d="M75.32,281.55c-0.24,0.47-3.34,0-4.29,0c-1.67,0-2.86,0.47-2.86-0.48c0.24-0.72,3.1-0.24,3.81-0.24
				C73.65,280.83,75.8,280.6,75.32,281.55z"/>
			<path class="st3" d="M84.62,281.07c0.24,0.71-0.95,0.71-1.19,0.71c-0.24,0-0.24-0.48-0.24-0.71
				C83.43,280.83,84.38,280.83,84.62,281.07z"/>
		</g>
		<g>
			<path class="st3" d="M102.73,247.94c1.43,0,1.43,0.24,1.43,0.71c-0.24,0.24-1.91,0.24-2.38,0.24c-1.67,0-2.38,0.95-2.86,0.95
				c-0.71-0.24-0.24-0.72,0.48-1.19C99.87,248.42,101.06,247.94,102.73,247.94z"/>
			<path class="st3" d="M106.07,247.94c0,0,1.91,0,2.38,0.24c0.48,0.24,0.48,0.71,0.24,0.95c0,0.24-2.86-0.24-2.86-0.24
				c-0.24,0-0.24-0.24-0.24-0.48S105.59,247.94,106.07,247.94z"/>
			<path class="st3" d="M123,248.18c0.48,0,0.71,0.95,0.24,1.19c-1.91,0.24-2.38,0.24-2.38,0C120.13,247.94,123,248.18,123,248.18z"
				/>
			<path class="st3" d="M115.84,248.65c0,0,2.38,0,2.86,0.24c0.24,0,0.48,0.48,0.24,0.95c-0.24,0.24-3.1,0.24-3.34-0.72
				C115.6,248.89,115.37,248.65,115.84,248.65z"/>
			<path class="st3" d="M110.84,248.42c0,0,1.91,0.24,2.38,0.24c0.24,0,0.71,0.24,0.48,0.71c-0.24,0.24-3.1,0.24-3.34-0.71
				C110.6,248.89,110.36,248.42,110.84,248.42z"/>
		</g>
		<g>
			<path class="st3" d="M105.83,253.19c0.24-0.71,1.91-0.48,2.38-0.24c0,0,0,0.24,0,0.48C107.02,254.14,105.59,253.66,105.83,253.19
				z"/>
			<path class="st3" d="M110.6,253.42c0.48-0.48,2.62,0,1.91,0.72c-0.24,0-1.67,0.24-2.15,0
				C110.36,254.38,110.12,253.9,110.6,253.42z"/>
			<path class="st3" d="M117.75,253.9c0.71,0.95-1.91,0.95-2.15,0.95c-0.24,0-0.95-0.24-0.95-0.48
				C114.65,253.42,117.27,253.19,117.75,253.9z"/>
			<path class="st3" d="M123.23,253.42c0.48,1.19-1.67,0.95-1.91,0.95c-0.24,0-0.95,0-0.95-0.24
				C120.13,253.19,123,252.71,123.23,253.42z"/>
			<path class="st3" d="M102.73,252.47c0.48,0,1.67,0,1.67,0.72c-0.48,0.71-2.62,0.48-3.1,0.71c-1.91,0.24-2.38,0.95-2.86,0.95
				c-0.71-0.24-0.24-0.71,0.48-1.19C99.4,253.19,101.3,252.47,102.73,252.47z"/>
		</g>
		<g>
			<path class="st3" d="M112.03,257.95c0,0.48-0.24,0.48-0.24,0.71c-0.24,0.24-2.15,0.24-2.38-0.48c0,0,0-0.71,0.71-0.48
				C110.6,257.71,112.03,257.24,112.03,257.95z"/>
			<path class="st3" d="M114.17,257.71c0.24,0,3.58,0,2.62,0.95c-0.24,0.24-0.48,0.24-0.71,0.24c-0.95,0-2.38-0.24-2.62-0.24
				c-0.24-0.24-0.24-0.24,0-0.71C113.7,257.95,113.94,257.71,114.17,257.71z"/>
			<path class="st3" d="M118.7,257.71c2.38,0.48,4.29-0.24,4.53,0.24c0.24,0.48,0,0.71,0,0.71c-0.24,0.24-5.01,0.48-5.24-0.48
				C117.99,257.95,118.46,257.71,118.7,257.71z"/>
			<path class="st3" d="M107.74,257.71c0.48,0.95-1.19,0.72-1.43,0.72c-0.24,0-0.72-0.24-0.72-0.48
				C105.35,257,107.26,257,107.74,257.71z"/>
			<path class="st3" d="M102.02,257c0.48,0,1.43-0.24,1.67,0.48c-0.48,0.95-1.43,0.48-3.1,0.71c-1.91,0.24-1.91,0.95-2.38,0.48
				c-0.48-0.48,0-0.71,0.71-0.95C99.63,257.24,100.59,257,102.02,257z"/>
		</g>
		<g>
			<path class="st3" d="M104.64,262c0.24,0,0.95,0,1.19,0.48c0.24,0.24,0.24,0.48,0,0.71c-2.38,0.24-2.38-0.24-2.38-0.24
				C103.45,261.77,104.4,261.77,104.64,262z"/>
			<path class="st3" d="M123.23,262.24c1.19,0.48-0.71,1.19-1.91,0.71c0,0-0.24-0.24-0.48-0.24
				C120.61,262.24,122.76,262,123.23,262.24z"/>
			<path class="st3" d="M109.65,262c0.71,0.24,0.71,0.95,0,1.19c-0.24,0-2.38,0.48-2.62-0.24
				C107.26,261.53,109.41,261.77,109.65,262z"/>
			<path class="st3" d="M119.9,262.48c0.24,0.71-0.48,0.71-1.19,0.71c-0.71,0-3.1,0.24-3.1-0.48c0-0.48,0.95-0.24,1.43-0.24
				C117.75,262.24,119.9,262.24,119.9,262.48z"/>
			<path class="st3" d="M114.17,262.96c-0.24,0.48-2.62,0.24-2.38-0.48C111.79,262.24,114.41,261.77,114.17,262.96z"/>
			<path class="st3" d="M100.83,261.53c0.48,0,1.43,0,1.67,0.72c-0.72,0.71-1.43,0.24-3.1,0.48c-1.43,0.24-1.67,0.72-1.67-0.24
				C97.73,262,99.4,261.53,100.83,261.53z"/>
		</g>
		<g>
			<path class="st3" d="M104.16,266.53c0,0,1.91-0.24,2.62,0c0.24,0,0.48,0.48,0.24,0.71c-0.24,0.24-3.1,0.48-3.1-0.48
				C103.92,267.01,103.92,266.77,104.16,266.53z"/>
			<path class="st3" d="M109.17,267.01c0.71-0.24,2.86,0.24,1.91,1.19c-0.24,0.24-1.91,0-2.38-0.48
				C108.69,267.73,108.46,267.25,109.17,267.01z"/>
			<path class="st3" d="M113.22,267.01c0.48-0.24,2.38,0.24,1.67,0.95c-0.24,0.24-1.43,0.24-1.91,0
				C112.98,267.96,112.75,267.25,113.22,267.01z"/>
			<path class="st3" d="M118.94,267.49c-0.71,0-1.67,0.24-1.67,0.72c0,0.48,0.48,0.24,2.15,0.24c0.71,0,2.86,0.24,3.34,0.24
				c0.48-0.24,0.72-0.71,0.48-0.71C121.8,267.73,120.61,267.25,118.94,267.49z"/>
			<path class="st3" d="M101.06,266.53c0.48,0,1.43-0.24,1.43,0.48c-0.48,0.72-1.43,0.48-2.86,0.72c-1.43,0.24-1.67,0.48-1.67-0.24
				C97.73,267.25,99.63,266.53,101.06,266.53z"/>
		</g>
		<g>
			<g>
				<path class="st3" d="M104.88,272.25h1.19c0.48,0,0.24,0.71,0.24,0.71c0,0.24-0.95,0.24-1.67,0.24c-0.24,0-0.95-0.24-0.95-0.71
					C103.69,272.25,104.4,272.25,104.88,272.25z"/>
			</g>
			<g>
				<path class="st3" d="M108.69,272.25c0.24,0,3.34,0,2.38,0.71c0,0-0.48,0.24-0.72,0.24c-0.71,0-2.15,0-2.38-0.24
					c-0.24,0-0.24-0.24,0-0.48C108.22,272.49,108.46,272.49,108.69,272.25z"/>
			</g>
			<path class="st3" d="M113.22,272.49c0.48-0.24,2.62,0.48,1.67,1.19c-0.24,0-1.67,0-2.15-0.48
				C112.98,273.21,112.75,272.73,113.22,272.49z"/>
			<path class="st3" d="M117.51,272.97c0.24,0,3.57,0,2.62,0.95c-0.24,0.24-0.48,0.24-0.71,0.24c-0.95,0-2.38-0.24-2.62-0.24
				c-0.24-0.24-0.24-0.48,0-0.71C117.04,272.97,117.27,272.97,117.51,272.97z"/>
			<path class="st3" d="M100.83,272.02c0.71,0,1.67-0.24,1.67,0.48c-0.48,0.71-0.95,0.48-2.62,0.71c-1.43,0.24-1.67,0.48-1.67-0.24
				C98.21,272.49,99.4,272.25,100.83,272.02z"/>
			<path class="st3" d="M121.8,273.21c0.48-0.24,2.38,0.24,1.67,0.95c-0.24,0.24-1.43,0.24-1.91,0
				C121.56,273.92,121.33,273.44,121.8,273.21z"/>
		</g>
		<g>
			<g>
				<path class="st3" d="M110.6,277.73c0.24,0,3.34,0,2.38,0.72c0,0-0.48,0.24-0.71,0.24c-0.71,0-2.15,0-2.38-0.24
					c0,0,0-0.24,0-0.48C110.12,277.73,110.36,277.73,110.6,277.73z"/>
			</g>
			<g>
				<path class="st3" d="M115.6,278.21c0.95,0,2.62,0.24,2.62,0.95c0,0.48-0.71,0-0.95,0c-0.71,0-2.86,0.24-2.62-0.71
					C114.65,278.21,115.37,278.21,115.6,278.21z"/>
			</g>
			<path class="st3" d="M119.42,279.17c0,0.48,2.38,1.19,2.38,0.48C121.8,279.17,119.66,277.97,119.42,279.17z"/>
			<g>
				<path class="st3" d="M107.98,277.5c0,0-1.67-0.48-2.38-0.24c-0.24,0-0.48,0.48-0.24,0.72c0.24,0.24,2.86,0.71,2.86,0
					C108.22,277.97,108.46,277.73,107.98,277.5z"/>
			</g>
			<path class="st3" d="M101.78,277.26c0.48,0,2.62,0,2.62,0.95c-0.24,0.72-1.91,0-4.05,0.24c-1.43,0.24-1.67,0.48-1.67-0.24
				C98.68,277.5,100.35,277.26,101.78,277.26z"/>
		</g>
		<g>
			<path class="st3" d="M106.79,282.27c0.71-0.24,3.1,0.24,2.15,0.95c-0.24,0.24-1.91,0-2.38-0.24
				C106.31,282.74,106.07,282.5,106.79,282.27z"/>
			<g>
				<path class="st3" d="M111.55,282.74c0.48-0.24,2.38,0.24,1.67,0.95c-0.24,0.24-1.43,0-1.91-0.24
					C111.31,283.46,111.08,282.98,111.55,282.74z"/>
			</g>
			<g>
				<path class="st3" d="M117.51,283.7c0.48,0.95-1.43,0.71-1.67,0.71c-0.24,0-0.71-0.24-0.71-0.47
					C115.13,282.98,117.27,283.22,117.51,283.7z"/>
			</g>
			<path class="st3" d="M118.94,284.41c0,0.48,1.43,0.95,1.43,0C120.37,284.17,119.18,283.22,118.94,284.41z"/>
			<path class="st3" d="M98.92,282.5c0.24,0,5.72-0.72,5.48,0.24c0,0.24,0.24,0.47-2.86,0.47c-0.71,0-2.86,0.48-3.1,0.24
				C98.44,283.22,97.97,282.74,98.92,282.5z"/>
		</g>
		<g>
			<path class="st3" d="M105.12,291.32c0,0,1.91-0.24,2.62,0.24c0.24,0,0.48,0.48,0.24,0.72c-0.24,0.24-3.1,0.24-3.1-0.72
				C104.88,291.8,104.64,291.56,105.12,291.32z"/>
			<g>
				<path class="st3" d="M110.6,292.04c0.24,0,3.34,0.24,2.38,0.95c-0.24,0-0.48,0.24-0.71,0.24c-0.71,0-2.15-0.24-2.38-0.48
					c0,0,0-0.24,0-0.48C110.12,292.28,110.36,292.04,110.6,292.04z"/>
			</g>
			<path class="st3" d="M116.08,293.71c-0.71-0.24-2.15-0.48-1.91-0.95c0.24-0.47,0.95,0,1.43,0
				C117.27,292.51,117.51,293.94,116.08,293.71z"/>
			<path class="st3" d="M120.37,294.18c-0.71,0-2.15-0.24-2.15-0.96c0-0.48,0.71,0,1.19-0.24
				C121.8,292.51,122.04,294.18,120.37,294.18z"/>
			<path class="st3" d="M102.73,291.8c0,0.48-0.71,0.48-2.15,0.48c-1.43,0-2.38,1.19-2.86,0.24c-0.24-0.24,0.24-0.48,0.95-0.95
				C99.4,291.32,102.73,291.08,102.73,291.8z"/>
		</g>
		<g>
			<g>
				<path class="st3" d="M106.07,286.79c0.24,0,2.38,0,1.67,0.72c0,0-0.24,0.24-0.48,0.24c-0.48,0-1.67,0-1.67-0.24
					c0,0,0-0.24,0-0.48C105.83,286.79,105.83,286.79,106.07,286.79z"/>
			</g>
			<path class="st3" d="M109.65,287.03c0.48-0.24,3.81,0.24,2.86,1.43c-0.24,0-2.62-0.24-3.1-0.48
				C109.17,287.75,108.93,287.27,109.65,287.03z"/>
			<path class="st3" d="M116.56,287.98c0.48,0,2.86,0.48,2.86,1.19c0,0.24-0.71,0.24-1.19,0c-1.19-0.24-1.91-0.47-3.1-0.47
				c-0.48,0-0.48-0.48-0.24-0.72C114.89,287.75,116.32,287.98,116.56,287.98z"/>
			<path class="st3" d="M103.69,287.27c0,0.96-1.19,0.48-2.62,0.48c-1.43,0-2.38,0.95-2.86,0.24c0-0.24,0.24-0.48,0.95-0.95
				C99.87,286.79,103.69,286.55,103.69,287.27z"/>
		</g>
		<g>
			<path class="st3" d="M118.7,296.8c0.24,0,3.57,0.24,2.62,1.19c-0.24,0.24-0.48,0.24-0.72,0.24c-0.95,0-2.38-0.24-2.62-0.48
				c-0.24-0.24,0-0.48,0-0.71C118.23,297.04,118.46,297.04,118.7,296.8z"/>
			<path class="st3" d="M116.56,297.52c-0.24,0.48-2.62,0-2.38-0.71C114.41,296.57,116.8,296.33,116.56,297.52z"/>
			<g>
				<path class="st3" d="M110.36,296.09c0.24,0,3.1,0.24,2.38,0.95c0,0-0.48,0.24-0.72,0.24c-0.71,0-2.15-0.24-2.38-0.48
					c0,0,0-0.24,0-0.48C110.12,296.33,110.12,296.09,110.36,296.09z"/>
			</g>
			<path class="st3" d="M107.5,296.09c0.48,0.95-1.19,0.71-1.43,0.71c-0.24,0-0.71-0.24-0.71-0.48
				C105.35,295.38,107.02,295.38,107.5,296.09z"/>
			<path class="st3" d="M101.06,295.61c0.48,0,1.67-0.24,1.67,0.48c-0.48,0.71-1.43,0.48-2.86,0.71c-1.43,0.24-1.67,0.48-1.67-0.24
				C97.97,296.09,99.63,295.61,101.06,295.61z"/>
		</g>
		<path class="st3" d="M98.68,300.38c0,0,1.67-0.48,2.62-0.24c0.24,0,0.48,0.24,0.24,0.71c-0.71,0-2.62,0.24-2.86,0.48
			C98.68,301.33,98.44,300.62,98.68,300.38z"/>
		<g>
			<path class="st3" d="M78.66,285.6c0.95-0.24,2.86,0.95,0.71,0.95c-0.24,0-1.43,0-1.43,0C76.99,285.84,78.42,285.6,78.66,285.6z"
				/>
			<path class="st3" d="M76.04,286.08c0,0.48-2.38,0.48-4.29,0.24c-2.15-0.24-3.58,0-3.58-0.48c0.24-0.71,2.38-0.24,3.34-0.24
				C73.18,285.84,76.04,285.12,76.04,286.08z"/>
			<path class="st3" d="M88.91,287.03c-0.24,0.95-3.34-0.24-5.01-0.24c-0.95,0-1.91,0-2.15,0c-0.48,0-0.48-0.71,0-0.95
				C82.95,285.36,88.91,286.32,88.91,287.03z"/>
			<path class="st3" d="M91.77,288.7c-0.24,0.47-0.71,0-1.43-0.24c-0.24,0-0.71-0.24-0.48-0.71c0.48-0.48,1.19,0,1.43,0
				C91.77,288.22,92.01,288.46,91.77,288.7z"/>
		</g>
		<g>
			<path class="st3" d="M86.05,296.33c0,0.72-3.57-0.24-5-0.47c-0.95,0-2.86,0-2.86,0c-0.48,0-0.48-0.95,0-0.95
				C79.85,294.66,86.05,295.38,86.05,296.33z"/>
			<path class="st3" d="M76.27,295.61c0,0.48-2.15,0.24-4.29,0.24c-3.58,0-3.81-0.24-3.58-0.72c0.24-0.71,2.15-0.47,3.34-0.71
				C73.42,294.66,76.27,294.42,76.27,295.61z"/>
			<path class="st3" d="M92.01,298.23c-0.24,0.47-1.43-0.48-2.38-0.48c-0.24,0-1.43,0-1.19-0.71c0-0.72,0.71-0.48,1.91-0.24
				C91.53,297.04,92.48,297.76,92.01,298.23z"/>
		</g>
		<g>
			<path class="st3" d="M88.91,292.04c-0.24,1.19-1.43-0.24-5.01-0.24c-0.95,0-1.91,0-2.15,0c-0.48,0-0.48-0.71,0-0.95
				C83.43,290.37,88.91,291.08,88.91,292.04z"/>
			<path class="st3" d="M78.9,290.37c0.95-0.24,2.86,0.95,0.71,0.95c-0.24,0-1.43,0-1.67,0C77.23,290.61,78.66,290.37,78.9,290.37z"
				/>
			<path class="st3" d="M76.04,290.61c0,0.71-3.81,0.24-4.77,0.24c-2.15-0.24-3.1,0.24-3.1-0.72c0.24-0.72,2.38-0.24,3.34-0.24
				C73.18,290.13,76.04,289.65,76.04,290.61z"/>
			<path class="st3" d="M91.05,292.51c0.95,0.24,2.15,2.15,0,1.19c-0.24,0-1.19-0.71-1.43-0.71
				C89.38,291.8,90.81,292.28,91.05,292.51z"/>
		</g>
		<g>
			<path class="st3" d="M91.53,309.2c0.24,0,0.48,0,0.24,0.71c-0.24,0.48-6.2-0.48-6.44-0.71c-0.71,0-0.48-0.24-0.48-0.71
				c0.24-0.24,0.71-0.24,0.71-0.24C85.57,308.01,91.53,308.96,91.53,309.2z"/>
			<path class="st3" d="M82.71,308.48c-0.24,0.24-2.86,0.48-2.62-0.24c0-0.71,0.72-0.24,1.67-0.24
				C83.19,307.77,82.95,308.01,82.71,308.48z"/>
		</g>
		<path class="st3" d="M101.54,308.25c0.48,0,0.95-0.24,0.95,0.48c-0.24,0.48-0.95,0.24-2.38,0.71c-1.43,0.24-1.67,0.72-1.67-0.24
			C98.44,308.96,100.11,308.48,101.54,308.25z"/>
		<path class="st3" d="M101.54,303.96c0.48,0,1.19-0.24,1.19,0.48c-0.24,0.24-1.19,0.24-2.62,0.48c-1.43,0.24-1.67,0.72-1.67,0
			C98.44,304.67,100.11,303.96,101.54,303.96z"/>
		<g>
			<g>
				<path class="st3" d="M68.65,248.42c0,0,0,0.48,0,0.95c0,0.71,0,1.43,0,2.38v4.29l0,0c0-0.24-0.24-4.29-0.24-4.29
					c0-0.95,0-1.91,0-2.38S68.41,248.42,68.65,248.42L68.65,248.42c1.19-0.24,4.77-0.71,5.72-0.24c0.24,0,0.24,1.19,0.24,2.62
					c0,2.15-0.24,4.77-0.24,5.01c0,0.24-1.43,0.24-2.62,0.48c1.19,0,2.62-0.24,2.62-0.48c0-0.24,0.24-2.86,0.24-5.01
					c0-1.43,0-2.62-0.24-2.62C73.18,247.7,69.84,248.18,68.65,248.42z M68.65,248.42L68.65,248.42L68.65,248.42z M68.65,256.28
					c0.48,0,1.67,0,2.86,0C70.32,256.28,69.12,256.28,68.65,256.28L68.65,256.28z"/>
			</g>
			<g>
				<path class="st3" d="M68.41,248.18c-0.48,0-0.48,0.24-0.48,3.81l0,0v2.38v2.15c0,0.71,0.95,0.71,1.67,0.48h1.19h1.19
					c2.38,0,2.62,0,2.86-0.48v-1.43v-3.1c0-3.81-0.24-4.05-0.48-4.29C73.18,247.23,69.36,247.94,68.41,248.18z M73.89,248.65
					L73.89,248.65c0,0.24,0,0.95,0,2.15c0,0.24,0,0.72,0,1.19l0.24,2.86c0,0,0,0.48,0,0.71c-0.48,0-1.91,0-1.91,0h-1.19h-1.19h-0.71
					c0,0,0-1.19,0-1.67c0-0.24,0-2.62,0-2.62l0,0c0,0,0-2.38,0-2.86C70.32,248.65,73.42,248.42,73.89,248.65z"/>
			</g>
		</g>
		<path class="st3" d="M179.01,275.11c-0.71-4.53-0.95-8.34-0.95-11.44c0-3.1-0.24-5.48-0.95-6.91l0,0l-6.67-16.45l0,0
			c-1.43-4.77-13.11-18.59-13.59-19.31c-1.43-2.15-9.3-8.1-11.44-9.3l-8.82-5.96c-3.58-2.62-9.3-4.77-14.06-6.44l-5.72-1.67
			c-6.91-2.38-17.88-2.62-19.31-2.62c-0.48,0-3.34,0-3.81,0c-1.43,0-12.39,0.24-18.83,2.62l-4.05,1.43
			c-5.24,1.43-10.01,2.86-13.59,5.48c0,0-9.77,6.91-10.25,7.15c-2.15,1.19-12.4,8.58-13.59,10.49l0,0
			c-0.48,0.72-11.2,13.35-12.4,18.12l0,0L14.06,257l0,0c-0.71,1.43-0.71,4.05-0.71,7.39c0,3.1-0.48,6.44-1.19,10.97
			c-0.72,3.57-0.24,6.67,0.24,10.49c0.48,3.81,0.71,8.34,1.43,11.68c0.48,2.86,1.43,5.24,1.43,7.15c0.95,4.53,3.34,10.49,4.29,12.16
			c0.95,1.19,2.38,3.33,2.38,3.33c1.43,1.91,3.1,4.05,4.05,5.72c0.95,1.67,1.43,2.62,2.15,4.05c1.19,1.91,2.15,3.81,3.34,5.24
			c1.19,1.67,2.38,3.1,4.05,4.29c0.48,0.24,4.05,2.86,5.72,4.05c2.15,1.43,2.86,1.91,3.1,2.14l1.19,1.19
			c3.58,3.57,6.2,6.44,8.58,7.63c0.95,0.48,3.1,1.19,3.81,1.19c0.72,0,1.43-0.24,1.91-0.48c0.95-0.48,1.67-1.43,1.91-3.1
			c0-0.24,0.48-1.19,0.95-2.38c0.72,0.24,1.67,1.19,2.38,1.91l-0.48,1.67c-0.48,1.43-0.24,2.86,0.71,4.05
			c3.81,5,17.88,6.91,30.27,6.44c12.87,0.47,28.6-3.34,30.75-8.34c0.48-0.95,0.24-1.91-0.48-2.62c-0.24-0.24-0.48-0.48-0.48-0.72
			c0-0.24,0.24-0.24,0.48-0.48c0.48-0.24,1.19,0,1.67,0l0,0c0.48,0.95,1.19,1.91,1.67,3.1c0.24,0.48,0.72,0.72,1.19,0.95
			c3.81,0.71,15.73-9.77,15.73-10.01c0.48-0.48,2.62-2.38,4.77-3.58c1.67-1.19,3.34-2.14,3.81-2.62c3.34-2.62,5.72-5.72,7.87-9.53
			c1.67-2.86,3.34-5.96,6.2-9.77l0.24-0.24c2.62-3.58,5.96-10.25,6.67-15.25c0.24-1.91,0.72-4.29,1.19-7.15
			C178.53,290.61,180.2,282.27,179.01,275.11z M66.03,349.96c-0.48-0.47-1.43-1.19-2.38-1.43c2.62-5.96,3.57-8.82,3.81-10.25v-0.24
			v-0.24l0,0c0-0.24,0-0.24,0-0.24l-0.48-0.95c-0.24-0.48-1.19-1.67-1.19-2.38c0-1.19,0.48-0.95,0.95-0.95
			c0.48,0,2.86,0.48,4.53,1.43c1.19,0.48,2.15,1.91,2.62,2.38c0.24,0.24,0.24,0.71-0.24,0.95c-0.24,0.24-0.48,0.48-1.19,0.72
			c-0.71,0.24-1.91,1.19-2.15,1.43c-1.43,0.71-2.38,3.1-3.81,7.63v0.24c-0.24,0.48-0.24,0.95-0.48,1.43
			C66.27,349.48,66.03,349.72,66.03,349.96z M64.6,335.42c-0.95-0.48-1.67-0.95-2.86-1.67c-1.67-1.19-5.96-4.53-7.87-5.72
			c-1.19-0.72-1.43-1.43-2.86-3.1c-1.19-1.43-2.62-2.86-3.81-3.57c-1.67-1.19-4.29-5.24-5.24-6.91c-3.1-5.01-8.1-15.02-9.3-24.79
			c-0.24-1.19-0.24-4.53-0.24-7.39c0-2.38,0-4.53-0.24-5.48c0.24-1.91,0.71-7.39,1.19-8.82c0.48-0.95,0.71-3.1,0.95-4.77
			c0.24-1.43,0.71-3.57,0.95-4.29c0,0,1.43-4.05,2.38-5.72l4.53-8.34c0,0,2.38-4.77,4.05-6.67l1.67-1.91
			c1.91-1.91,3.81-4.05,5.48-5.48c2.86-2.15,7.39-5.24,11.44-7.15l5.48-2.62c1.91-0.95,2.86-1.43,4.53-1.91
			c0,0,10.96-3.58,18.12-3.81c-0.71,1.67-1.19,3.1-1.43,3.57c0,0-1.67,0.24-4.05,0.48c-1.19,0-5,0.71-5,0.71
			c2.62,4.05,5,6.44,5.96,7.63c0,0-1.43,7.63-1.19,8.58c0.24,0,4.05-2.15,5.48-2.86c1.43-0.71,2.86-1.19,3.1-1.19
			c0,0,3.81,1.67,4.77,2.15c2.15,1.19,3.58,1.91,4.05,2.15l0,0c0,0-1.91-8.1-1.91-8.58c0,0,0.95-0.95,1.67-1.91
			c1.19-1.43,2.15-2.38,2.86-3.1c0.71-0.95,2.15-2.38,2.15-2.38s-8.82-0.95-9.3-1.19c0,0-0.95-1.91-1.43-3.57
			c1.67,0,2.86,0.24,5,0.71l0,0c5.24,0.95,11.2,3.1,13.59,4.05c0,0,2.15,0.95,2.38,0.95l3.81,1.67c2.38,1.43,4.77,2.62,5.48,3.34
			l1.43,0.95c2.62,1.91,8.58,5.72,9.53,7.39l1.43,1.91c0.95,1.19,1.43,2.62,1.91,3.58c0.71,2.15,2.86,4.53,4.53,6.67
			c1.19,1.67,2.62,3.1,3.34,4.29c0,0,2.38,3.34,2.86,6.44c0.71,3.81,1.67,9.77,2.15,11.68c2.86,9.53,1.91,14.54,0.95,19.55
			c-0.24,1.43-1.19,3.57-1.19,5.01c-0.24,1.67-0.48,3.57-1.43,5.96c-0.48,0.95-1.19,2.86-1.67,3.81c-0.48,1.67-1.19,3.58-2.15,5.01
			c-0.48,0.48-1.19,1.67-2.15,3.34c-2.38,3.81-6.2,9.77-9.3,13.82c-0.95,1.19-3.81,3.58-5.96,5.24c-1.43,1.19-2.62,2.14-3.1,2.62
			c-0.95,0.95-2.62,2.15-4.29,3.34c0-0.24,0-0.24,0-0.48c0-0.24,0-0.48,0-0.71c-0.24-0.48-0.48-1.19-1.67-1.43
			c-1.19-0.24-2.38,0.24-3.81,0.95c-1.19,0.48-2.38,0.95-4.29,2.62c-0.71,0.72-1.67,1.67-1.43,2.38c0.24,0.72,0.95,1.19,1.67,1.67
			c-3.81,1.19-7.39,2.15-8.82,2.62c-0.95,0.24-4.05,1.19-5.96,1.43c-2.15,0.48-4.53,0.71-5.72,0.71c-4.53,0-11.2-1.67-12.63-2.38
			l0,0l0,0c-3.1-1.19-7.39-2.86-10.01-3.33h0.24c1.19-0.48,1.91-1.19,2.15-1.91c0-0.48,0-1.19-0.72-2.14
			c-0.71-0.95-2.15-1.91-3.34-2.62c-0.24-0.24-3.34-1.19-4.53-1.43c-0.95,0-1.43,0-1.91,0.24l0,0c-0.48-0.72-0.71-0.24-0.71,0.47
			C64.36,334.23,64.36,334.7,64.6,335.42z M96.06,223.15c-0.95-0.71-3.1-4.29-3.1-4.29c0-0.48,3.1-6.91,3.1-6.91
			c0.24,1.19,0.24,3.34,0.24,5.72C96.06,219.81,95.82,222.2,96.06,223.15z M85.1,220.77c0.95,0.24,3.81,1.19,3.81,1.19
			c2.15,0.71,4.05,1.67,6.2,2.15c-0.24,0.71-0.95,1.91-0.95,1.91s-4.77,7.39-5.01,7.87l1.43-7.63C90.1,225.77,87,223.15,85.1,220.77
			z M104.88,222.91c0,0.24-1.91,2.38-1.91,2.38c-0.24,0-5.72-1.19-6.2-1.43c0,0,2.15-4.05,3.1-4.53l7.87,0.71
			c-0.72,0.24-2.86,0.72-4.77,1.43c-2.38,0.95-4.53,1.67-4.53,1.67S104.16,223.15,104.88,222.91z M102.97,233.88
			c-0.72-0.24-5.72-3.1-5.72-3.1c-0.24-0.24-0.95-5.72-0.95-6.67L102.97,233.88z M125.62,354.73c-1.43,3.1-14.54,8.1-27.89,7.63
			c-13.83,0.48-27.65-1.67-30.51-5.48c-0.48-0.48-0.71-1.91-0.71-2.62c0-0.24,0-0.48,0.24-0.72l0.71-2.38l0,0v-0.24l0,0
			c1.19-4.29,2.62-9.3,3.81-9.53c0.95,0,0.95-0.72,6.44,1.43c1.91,0.95,12.4,4.05,14.54,4.29c1.67,0,7.39,0,9.77-0.48
			c1.91-0.24,3.34-0.95,4.29-0.95c1.91-0.24,11.68-3.1,13.35-3.58l0,0c0,0,0,0,0.24,0l0,0c0.48,0.48,0.71,1.43,0.95,2.62
			c0,0.24,0.24,0.71,0.24,0.95c0.24,0.71,0.48,1.19,0.72,1.91c0,0.24,0.24,0.24,0.24,0.48c0.24,0.48,0.48,0.95,0.48,1.43
			c0,0.24,0.24,0.47,0.24,0.72c0.24,0.48,0.48,0.95,0.72,1.43c0.24,0.24,0.24,0.48,0.48,0.71c0,0.24,0.24,0.24,0.24,0.48l1.19,1.67
			C125.62,354.73,125.62,354.73,125.62,354.73z M125.85,350.44L125.85,350.44c-0.24,0.24-0.48,0.24-0.71,0.48
			c-0.48-0.95-0.95-1.91-1.19-2.86c0-0.24,0-0.24-0.24-0.48c-0.24-0.47-0.24-0.71-0.48-1.19c0-0.24-0.24-0.71-0.24-0.95
			c0-0.24-0.24-0.48-0.24-0.48c-0.71-2.38-1.19-4.29-2.62-4.77l0,0c-0.24,0-0.24,0-0.48,0h-0.24l0,0c-1.43,0-3.1-0.72-3.34-1.19
			c0,0,0-0.72,0.24-0.95c1.43-1.43,2.38-2.38,3.34-2.62c0.71-0.24,2.38-1.19,4.05-0.72c0.48,0,0.48,0.72,0.48,0.72v0.24
			c0,0.72-0.71,1.67-1.19,2.38c-0.95,0.72-1.19,1.43-1.19,2.38c0,1.43,0.95,2.86,2.38,5.24c0.71,1.19,1.67,2.62,2.62,4.29
			C126.57,350.2,126.33,350.2,125.85,350.44z M175.43,297.04c-0.72,2.86-1.19,5.48-1.19,7.39c-0.72,6.91-3.1,10.25-6.2,14.3
			l-0.24,0.24c-2.86,3.82-4.77,7.15-6.2,10.01c-2.15,3.82-3.81,6.67-6.91,9.06c-0.48,0.24-1.91,1.43-3.57,2.38
			c-3.1,1.91-5.01,3.34-5.48,3.82c-3.1,2.86-12.63,10.01-14.3,9.53c-2.15-4.05-3.81-6.91-5.24-9.06c-1.43-2.38-2.15-3.58-2.15-4.29
			c0-0.47,0.24-0.72,0.72-1.19c0.48-0.24,4.29-3.33,6.2-5c0.48-0.48,2.62-1.67,3.81-2.86c2.38-1.91,6.2-6.44,7.39-7.87
			c3.34-4.05,5-7.15,7.63-10.96c0.95-1.67,2.62-4.29,2.86-4.77c1.19-1.67,1.67-2.86,2.15-4.77c0.24-0.95,0.95-2.15,1.43-3.1
			c1.19-2.38,1.67-5.24,1.67-7.15c0.24-1.43,0-1.91,0.48-3.33c0.71-2.62,1.67-6.67,1.67-10.49c0-3.1-0.48-5.72-1.91-10.25
			c-0.48-1.67-1.67-7.87-2.15-11.68c-0.48-3.34-2.86-7.87-2.86-7.87c-0.95-1.43-2.38-2.86-3.81-4.53c-1.91-2.15-3.34-4.53-4.05-6.44
			c-0.48-1.43-1.67-2.62-2.62-3.81l-1.43-1.43c-0.95-1.67-5-4.53-9.06-7.39l-1.19-0.95c-0.95-0.71-3.57-2.15-6.44-3.58l-3.58-1.91
			l0,0l-2.38-0.95c-2.62-0.95-9.06-3.1-11.44-3.58l0,0c-2.62-0.48-4.77-0.71-8.34-0.95c-0.24-0.48-0.24-0.72-0.48-0.95
			c-0.24-0.71-1.19-2.38-1.43-3.34c-0.71,0.48-1.67,2.38-2.62,4.53c-7.39,0.48-17.64,3.34-18.35,3.58c-1.91,0.48-2.86,1.19-5,2.15
			l-7.87,3.81c-5.24,2.38-7.87,4.77-9.3,5.96c-1.91,1.43-3.34,2.62-5.24,4.53l-1.67,1.43c-1.91,1.91-5.24,8.58-5.48,8.82l-3.1,5.24
			c-0.95,1.91-4.05,9.77-4.05,9.77c-0.24,0.71-0.71,2.38-0.95,3.81c-0.48,1.67-0.95,3.34-1.19,4.29c-0.48,6.2-0.71,9.06-0.95,9.77
			l0,0l0,0c0,0.95-0.24,3.1-0.24,5.01c0,3.1,0,6.2,0.24,7.63c0.48,5.72,3.81,15.49,7.15,20.74c0.24,0.24,2.38,5.48,8.34,12.16
			c0.95,0.95,3.1,2.86,4.29,4.29c1.67,1.67,2.15,2.38,3.57,3.33c1.91,1.19,3.58,2.38,5.24,3.58c1.91,1.43,3.81,2.86,5.96,4.05l0,0
			l0,0l0,0c0,0.24,0,0.24,0,0.48c0,0,0,0,0,0.24c0,0.24-0.24,0.48-0.24,0.95v0.24c-0.24,0.24-0.24,0.72-0.48,1.19v0.24
			c-0.24,0.48-0.24,0.72-0.48,1.19c0,0.24,0,0.24-0.24,0.47c-0.24,0.48-0.24,0.95-0.48,1.19c0,0.24-0.24,0.48-0.24,0.72
			c0,0.24-0.24,0.48-0.24,0.72c0,0.24-0.24,0.48-0.24,0.72c0,0.24-0.24,0.48-0.24,0.48c-0.24,0.71-0.48,1.19-0.71,1.67v0.24v0.24
			l0,0c-0.95,1.91-1.19,2.62-1.19,2.86c-0.24,0.95-0.48,1.67-1.19,1.91c-0.71,0.48-1.43,0.72-2.86,0.24
			c-1.91-0.72-3.58-2.38-5.48-4.05c-1.67-1.43-3.1-3.1-4.29-4.05L44.81,344c-0.48-0.47-1.67-1.43-4.77-3.33
			c-0.71-0.48-1.43-0.71-2.15-1.19c-0.71-0.48-2.38-2.14-2.62-2.38c-3.1-2.38-3.57-4.29-5.72-7.87c-1.67-2.86-3.81-6.91-4.77-7.87
			l-1.91-2.38c-3.1-4.05-5.48-7.39-6.2-14.3c-0.24-1.91-0.95-3.58-1.43-6.43c-0.24-1.43-0.48-3.58-0.71-5.01
			c-1.19-5.72-1.91-11.92-0.95-17.4c0.71-4.53,0.71-7.63,0.71-10.73c0-2.86,0.24-5.01,0.72-5.96l0.24-0.95l5.96-15.49l0,0
			c0.71-2.38,5.48-10.01,7.15-12.4c1.91-2.62,6.67-7.63,6.67-7.87l0,0l0,0c0.95-1.43,8.82-6.91,11.2-8.34l0,0l10.25-7.15
			c3.81-3.1,10.25-5.01,15.02-6.44l3.34-1.19c6.67-2.38,16.45-3.1,17.64-3.1c0.71,0,3.58,0,4.05,0c1.43,0,12.87,0.71,19.55,3.1
			l4.29,0.95c4.77,1.43,10.25,3.81,13.59,6.2l10.96,7.39l0,0c-1.43-0.71,9.3,5.24,11.44,9.06l0,0l0,0
			c0.24,0.24,11.92,14.78,13.11,19.31l0,0l5.72,14.54l0,0c0.48,0.95,0.72,4.05,0.72,6.91c0,3.1,0.71,7.39,1.43,11.92
			C179.01,282.5,176.86,290.37,175.43,297.04z"/>
		<g>
			<path class="st3" d="M91.53,300.86c-0.24,0.72-3.34-0.71-4.77-0.71c-0.95,0-3.81-0.24-4.05-0.24c-0.48,0-0.71-0.71-0.24-0.71
				C83.9,298.95,91.53,300.14,91.53,300.86z"/>
			<path class="st3" d="M75.8,299.67c0,0.71,0,0-3.34,0c-3.58,0-3.81,0-3.58-0.48c0.24-0.71,2.38-0.24,3.34-0.48
				C73.89,298.71,75.8,298.47,75.8,299.67z"/>
			<path class="st3" d="M77.94,299.43c0.24-0.24,2.38-0.48,2.15,0.24c0,0.71-0.24,0.48-1.43,0.24
				C77.47,299.9,77.71,299.67,77.94,299.43z"/>
		</g>
		<g>
			<path class="st3" d="M95.58,192.16c-0.95,0-1.67-0.71-1.67-1.67c0-0.95,0.71-1.67,1.67-1.67s1.67,0.71,1.67,1.67
				C97.49,191.45,96.54,192.16,95.58,192.16z"/>
			<path class="st3" d="M89.62,192.16c-0.95,0-1.67-0.71-1.67-1.67c0-0.95,0.71-1.67,1.67-1.67c0.95,0,1.67,0.71,1.91,1.67
				C91.29,191.45,90.58,192.16,89.62,192.16z"/>
			<path class="st3" d="M83.67,192.88c-0.95,0.24-1.67-0.48-1.91-1.43c-0.24-0.95,0.48-1.67,1.43-1.91
				c0.95-0.24,1.67,0.48,1.91,1.43C85.33,191.92,84.62,192.64,83.67,192.88z"/>
			<path class="st3" d="M77.71,193.83c-0.95,0.24-1.91-0.48-1.91-1.43c-0.24-0.95,0.48-1.91,1.43-1.91
				c0.95-0.24,1.91,0.48,1.91,1.43C79.14,192.64,78.66,193.59,77.71,193.83z"/>
			<path class="st3" d="M71.75,195.26c-0.95,0.24-1.91-0.24-2.15-1.19c-0.24-0.95,0.24-1.91,1.19-2.15
				c0.95-0.24,1.91,0.24,2.15,1.19C73.18,194.07,72.7,195.02,71.75,195.26z"/>
			<path class="st3" d="M66.03,196.93c-0.95,0.24-1.91-0.24-2.15-0.95c-0.24-0.95,0.24-1.91,0.95-2.15
				c0.95-0.24,1.91,0.24,2.15,0.95C67.46,195.74,66.98,196.69,66.03,196.93z"/>
			<path class="st3" d="M60.31,199.31c-0.95,0.48-1.91,0-2.15-0.95c-0.48-0.95,0-1.91,0.95-2.15c0.95-0.48,1.91,0,2.15,0.95
				C61.73,197.88,61.26,198.84,60.31,199.31z"/>
			<path class="st3" d="M54.82,201.7c-0.95,0.48-1.91,0-2.15-0.72c-0.48-0.71-0.24-1.91,0.72-2.38s1.91,0,2.38,0.71
				C56.02,200.27,55.78,201.46,54.82,201.7z"/>
			<path class="st3" d="M49.58,204.8c-0.72,0.48-1.91,0.24-2.38-0.48c-0.48-0.71-0.24-1.91,0.48-2.38c0.72-0.48,1.91-0.24,2.38,0.48
				C50.77,203.13,50.53,204.32,49.58,204.8z"/>
			<path class="st3" d="M44.57,208.13c-0.72,0.48-1.91,0.48-2.38-0.48c-0.48-0.72-0.48-1.91,0.48-2.38
				c0.71-0.48,1.91-0.48,2.38,0.48C45.53,206.46,45.29,207.42,44.57,208.13z"/>
			<path class="st3" d="M39.81,211.71c-0.72,0.48-1.67,0.48-2.38-0.24c-0.48-0.72-0.48-1.67,0.24-2.38
				c0.71-0.71,1.67-0.48,2.38,0.24C40.52,210.04,40.52,211.23,39.81,211.71z"/>
			<path class="st3" d="M35.04,215.76c-0.71,0.71-1.67,0.71-2.38,0c-0.71-0.72-0.71-1.67,0-2.38c0.72-0.71,1.67-0.71,2.38,0
				S35.75,215.05,35.04,215.76z"/>
			<path class="st3" d="M30.75,220.05c-0.71,0.72-1.67,0.72-2.38,0c-0.72-0.71-0.72-1.67,0-2.38c0.71-0.71,1.67-0.71,2.38,0
				C31.46,218.38,31.46,219.34,30.75,220.05z"/>
			<path class="st3" d="M26.94,224.58c-0.48,0.71-1.67,0.71-2.38,0.24c-0.71-0.48-0.95-1.67-0.24-2.38
				c0.48-0.71,1.67-0.71,2.38-0.24C27.41,222.91,27.41,223.87,26.94,224.58z"/>
			<path class="st3" d="M23.12,229.35c-0.48,0.71-1.67,0.95-2.38,0.48c-0.71-0.48-0.95-1.67-0.48-2.38
				c0.48-0.71,1.67-0.95,2.38-0.48C23.6,227.68,23.84,228.63,23.12,229.35z"/>
			<path class="st3" d="M19.78,234.35c-0.48,0.71-1.43,0.95-2.38,0.48c-0.71-0.48-0.95-1.43-0.48-2.38
				c0.48-0.72,1.43-0.95,2.38-0.48C20.02,232.69,20.26,233.64,19.78,234.35z"/>
			<path class="st3" d="M16.92,239.84c-0.48,0.95-1.43,1.19-2.15,0.71c-0.71-0.48-1.19-1.43-0.71-2.15
				c0.48-0.95,1.43-1.19,2.38-0.71C17.16,237.93,17.4,238.88,16.92,239.84z"/>
			<path class="st3" d="M14.3,245.32c-0.48,0.95-1.43,1.19-2.15,0.95c-0.95-0.48-1.19-1.43-0.95-2.15c0.48-0.95,1.43-1.19,2.15-0.95
				C14.3,243.41,14.78,244.37,14.3,245.32z"/>
			<path class="st3" d="M12.16,250.8c-0.24,0.95-1.19,1.43-2.14,0.95c-0.95-0.24-1.43-1.19-0.95-2.15c0.24-0.95,1.19-1.43,2.15-0.95
				C11.92,248.89,12.4,249.85,12.16,250.8z"/>
			<path class="st3" d="M10.25,256.52c-0.24,0.95-1.19,1.43-2.15,1.19c-0.71-0.24-1.19-0.95-0.95-1.91
				c0.24-0.95,1.19-1.43,2.15-1.19C10.01,254.85,10.49,255.81,10.25,256.52z"/>
			<path class="st3" d="M8.82,262.48c0,0.95-0.95,1.43-1.91,1.43c-0.95-0.24-1.43-0.95-1.43-1.91c0.24-0.95,0.95-1.43,1.91-1.43
				C8.58,260.81,9.06,261.53,8.82,262.48z"/>
			<path class="st3" d="M7.87,268.44c-0.24,0.95-0.95,1.67-1.91,1.43c-0.95,0-1.67-0.95-1.43-1.91c0.24-0.95,0.95-1.67,1.91-1.43
				C7.39,266.77,8.1,267.49,7.87,268.44z"/>
			<path class="st3" d="M7.39,274.64c0,0.95-0.95,1.67-1.67,1.67c-0.95,0-1.67-0.72-1.67-1.67c0-0.95,0.95-1.67,1.91-1.67
				C6.67,272.73,7.39,273.68,7.39,274.64z"/>
			<path class="st3" d="M7.15,280.6c0,0.95-0.71,1.67-1.67,1.67c-0.95,0-1.67-0.72-1.67-1.67c0-0.95,0.71-1.67,1.67-1.67
				C6.44,278.93,7.15,279.64,7.15,280.6z"/>
			<path class="st3" d="M7.39,286.55c0,0.95-0.72,1.67-1.43,1.91c-0.95,0-1.67-0.72-1.91-1.43c0-0.95,0.72-1.67,1.67-1.91
				C6.67,285.12,7.39,285.84,7.39,286.55z"/>
			<path class="st3" d="M8.1,292.75c0.24,0.95-0.48,1.67-1.43,1.91c-0.95,0.23-1.67-0.48-1.91-1.43c-0.24-0.95,0.48-1.67,1.43-1.91
				C7.15,291.08,7.87,291.8,8.1,292.75z"/>
			<path class="st3" d="M9.3,298.71c0.24,0.95-0.48,1.91-1.19,1.91c-0.95,0.24-1.91-0.24-1.91-1.19c-0.48-0.95,0-1.91,0.95-2.14
				C8.11,297.04,9.06,297.76,9.3,298.71z"/>
			<path class="st3" d="M10.73,304.43c0.24,0.96-0.24,1.91-1.19,2.15c-0.95,0.24-1.91-0.24-2.15-1.19
				c-0.24-0.95,0.24-1.67,1.19-2.15C9.54,303,10.49,303.48,10.73,304.43z"/>
			<path class="st3" d="M12.63,310.15c0.24,0.95-0.24,1.91-0.95,2.15c-0.95,0.24-1.91,0-2.15-0.95c-0.48-0.71,0-1.67,0.95-2.15
				C11.2,308.96,12.16,309.44,12.63,310.15z"/>
			<path class="st3" d="M14.78,315.87c0.48,0.95,0,1.91-0.95,2.15c-0.95,0.48-1.91,0-2.15-0.95c-0.48-0.95,0-1.91,0.95-2.14
				C13.35,314.68,14.54,314.92,14.78,315.87z"/>
			<path class="st3" d="M17.4,321.36c0.48,0.95,0.24,1.91-0.71,2.38c-0.71,0.48-1.91,0.24-2.38-0.71c-0.48-0.72-0.24-1.91,0.72-2.38
				C15.97,320.16,17.16,320.4,17.4,321.36z"/>
			<path class="st3" d="M20.5,326.6c0.48,0.72,0.24,1.91-0.48,2.38c-0.71,0.48-1.91,0.24-2.38-0.48c-0.48-0.72-0.24-1.91,0.48-2.38
				C19.07,325.41,20.02,325.65,20.5,326.6z"/>
			<path class="st3" d="M23.84,331.61c0.48,0.71,0.48,1.91-0.48,2.38c-0.71,0.48-1.91,0.48-2.38-0.48
				c-0.48-0.71-0.48-1.91,0.48-2.38C22.41,330.65,23.36,330.89,23.84,331.61z"/>
			<path class="st3" d="M27.65,336.37c0.72,0.72,0.48,1.67-0.24,2.38c-0.72,0.71-1.67,0.48-2.38-0.24
				c-0.71-0.72-0.48-1.67,0.24-2.38C25.98,335.42,26.94,335.66,27.65,336.37z"/>
			<path class="st3" d="M31.7,340.9c0.71,0.71,0.71,1.67,0,2.38c-0.72,0.71-1.67,0.71-2.38,0c-0.71-0.71-0.71-1.67,0-2.38
				C30.03,340.19,30.99,340.19,31.7,340.9z"/>
			<path class="st3" d="M35.99,344.95c0.71,0.72,0.71,1.67,0,2.38c-0.72,0.71-1.67,0.71-2.38,0.24c-0.71-0.71-0.71-1.67-0.24-2.38
				C34.32,344.48,35.28,344.48,35.99,344.95z"/>
			<path class="st3" d="M40.76,349.01c0.72,0.48,0.95,1.67,0.24,2.38c-0.48,0.72-1.67,0.95-2.38,0.24
				c-0.72-0.48-0.95-1.67-0.24-2.38C38.85,348.53,40.04,348.29,40.76,349.01z"/>
			<path class="st3" d="M45.53,352.58c0.72,0.48,0.95,1.67,0.48,2.38s-1.67,0.95-2.38,0.48c-0.72-0.48-0.95-1.67-0.48-2.38
				C43.86,352.34,44.81,352.1,45.53,352.58z"/>
			<path class="st3" d="M50.53,355.92c0.71,0.48,0.95,1.43,0.71,2.38c-0.48,0.72-1.43,1.19-2.38,0.72
				c-0.72-0.48-1.19-1.43-0.72-2.38C48.86,355.68,49.82,355.44,50.53,355.92z"/>
			<path class="st3" d="M56.02,358.78c0.95,0.48,1.19,1.43,0.71,2.15c-0.48,0.95-1.43,1.19-2.15,0.71
				c-0.95-0.48-1.19-1.43-0.71-2.15C54.11,358.54,55.06,358.3,56.02,358.78z"/>
			<path class="st3" d="M61.5,361.16c0.95,0.48,1.19,1.43,0.95,2.15c-0.24,0.95-1.43,1.19-2.15,0.95c-0.95-0.47-1.19-1.43-0.95-2.14
				C59.59,361.16,60.54,360.92,61.5,361.16z"/>
			<path class="st3" d="M67.22,363.31c0.95,0.24,1.43,1.19,0.95,2.14c-0.24,0.96-1.19,1.43-2.15,0.96
				c-0.95-0.24-1.43-1.19-0.95-2.15C65.31,363.55,66.27,363.07,67.22,363.31z"/>
			<path class="st3" d="M72.94,364.98c0.95,0.24,1.43,1.19,1.19,2.14c-0.24,0.95-1.19,1.43-2.15,1.19
				c-0.95-0.24-1.43-1.19-1.19-2.14C71.27,365.45,71.98,364.74,72.94,364.98z"/>
			<path class="st3" d="M78.9,366.41c0.95,0.24,1.43,0.95,1.43,1.91c-0.24,0.95-0.95,1.43-1.91,1.43c-0.95-0.24-1.43-0.96-1.43-1.91
				C77.23,366.88,77.94,366.17,78.9,366.41z"/>
			<path class="st3" d="M84.86,367.36c0.95,0,1.67,0.95,1.43,1.91c0,0.95-0.95,1.67-1.91,1.43c-0.95,0-1.67-0.95-1.43-1.91
				C83.19,367.84,83.9,367.12,84.86,367.36z"/>
			<path class="st3" d="M90.81,367.84c0.95,0,1.67,0.72,1.67,1.67c0,0.95-0.71,1.67-1.67,1.67c-0.95,0-1.67-0.95-1.67-1.67
				C89.15,368.31,89.86,367.6,90.81,367.84z"/>
			<path class="st3" d="M97.01,367.84c0.95,0,1.67,0.72,1.67,1.67c0,0.95-0.72,1.67-1.67,1.67c-0.95,0-1.67-0.71-1.67-1.67
				C95.35,368.55,96.06,367.84,97.01,367.84z"/>
			<path class="st3" d="M102.97,367.6c0.95,0,1.67,0.71,1.91,1.43c0,0.95-0.48,1.67-1.43,1.91c-0.95,0-1.67-0.72-1.91-1.43
				C101.3,368.31,102.02,367.6,102.97,367.6z"/>
			<path class="st3" d="M108.93,366.64c0.95-0.24,1.67,0.48,1.91,1.43c0.24,0.95-0.48,1.67-1.43,1.91
				c-0.95,0.24-1.67-0.48-1.91-1.43C107.5,367.84,107.98,366.88,108.93,366.64z"/>
			<path class="st3" d="M114.89,365.69c0.95-0.24,1.91,0.24,1.91,1.19c0.24,0.95-0.24,1.91-1.19,1.91
				c-0.95,0.24-1.91-0.48-1.91-1.19C113.46,366.64,114.17,365.69,114.89,365.69z"/>
			<path class="st3" d="M120.85,364.02c0.95-0.24,1.91,0.24,2.15,1.19c0.24,0.95-0.24,1.91-1.19,2.15
				c-0.95,0.24-1.91-0.24-2.15-1.19C119.42,365.21,119.9,364.26,120.85,364.02z"/>
			<path class="st3" d="M126.57,362.12c0.95-0.24,1.91,0,2.15,0.95c0.24,0.95,0,1.91-0.95,2.15c-0.95,0.24-1.91,0-2.15-0.95
				C125.14,363.31,125.62,362.35,126.57,362.12z"/>
			<path class="st3" d="M132.05,359.73c0.95-0.48,1.91,0,2.15,0.72c0.48,0.95,0,1.91-0.71,2.14c-0.95,0.48-1.91,0-2.15-0.72
				C130.86,361.16,131.34,360.21,132.05,359.73z"/>
			<path class="st3" d="M137.54,356.87c0.71-0.48,1.91-0.24,2.38,0.72c0.48,0.71,0.24,1.91-0.71,2.38
				c-0.72,0.48-1.91,0.24-2.38-0.72C136.34,358.3,136.82,357.35,137.54,356.87z"/>
			<path class="st3" d="M142.78,353.77c0.72-0.48,1.91-0.24,2.38,0.48c0.48,0.71,0.24,1.91-0.48,2.38
				c-0.71,0.48-1.91,0.24-2.38-0.48C141.83,355.44,141.83,354.25,142.78,353.77z"/>
			<path class="st3" d="M147.78,350.44c0.71-0.48,1.67-0.48,2.38,0.24c0.48,0.71,0.48,1.67-0.24,2.38
				c-0.72,0.47-1.91,0.47-2.38-0.24C146.83,351.87,147.07,350.91,147.78,350.44z"/>
			<path class="st3" d="M152.31,346.62c0.71-0.71,1.67-0.48,2.38,0.24c0.72,0.71,0.48,1.67-0.24,2.38s-1.67,0.48-2.38-0.24
				C151.6,348.29,151.6,347.34,152.31,346.62z"/>
			<path class="st3" d="M156.84,342.57c0.72-0.72,1.67-0.72,2.38,0c0.71,0.71,0.71,1.67,0,2.38c-0.72,0.72-1.67,0.72-2.38,0
				C156.13,344.24,156.13,343.05,156.84,342.57z"/>
			<path class="st3" d="M161.13,338.04c0.72-0.71,1.67-0.71,2.38-0.24c0.71,0.71,0.71,1.67,0.24,2.38
				c-0.71,0.72-1.67,0.72-2.38,0.24C160.42,339.95,160.42,338.76,161.13,338.04z"/>
			<path class="st3" d="M164.95,333.51c0.48-0.71,1.67-0.95,2.38-0.24c0.71,0.48,0.95,1.67,0.24,2.38
				c-0.48,0.72-1.67,0.95-2.38,0.24C164.47,335.18,164.23,334.23,164.95,333.51z"/>
			<path class="st3" d="M168.52,328.51c0.48-0.72,1.43-0.95,2.38-0.47c0.72,0.47,0.95,1.43,0.48,2.38
				c-0.48,0.71-1.67,0.95-2.38,0.47C168.04,330.17,167.81,329.22,168.52,328.51z"/>
			<path class="st3" d="M171.62,323.26c0.48-0.72,1.43-1.19,2.38-0.72c0.71,0.48,1.19,1.43,0.71,2.38
				c-0.48,0.72-1.43,1.19-2.38,0.72C171.38,325.17,171.14,324.22,171.62,323.26z"/>
			<path class="st3" d="M174.24,318.02c0.48-0.95,1.43-1.19,2.15-0.71c0.95,0.48,1.19,1.43,0.71,2.14
				c-0.48,0.95-1.43,1.19-2.15,0.71C174.24,319.69,174,318.73,174.24,318.02z"/>
			<path class="st3" d="M176.86,312.3c0.24-0.95,1.43-1.19,2.14-0.95c0.95,0.24,1.19,1.19,0.95,2.14c-0.24,0.95-1.43,1.19-2.15,0.95
				C176.86,314.21,176.39,313.25,176.86,312.3z"/>
			<path class="st3" d="M178.77,306.58c0.24-0.95,1.19-1.43,2.15-1.19c0.95,0.24,1.43,1.19,1.19,2.14
				c-0.24,0.95-1.19,1.43-2.15,1.19C179.01,308.48,178.53,307.53,178.77,306.58z"/>
			<path class="st3" d="M180.44,300.86c0.24-0.95,1.19-1.43,1.91-1.19c0.95,0.24,1.43,1.19,1.19,2.15
				c-0.24,0.95-1.19,1.43-2.15,1.19C180.92,302.53,180.2,301.81,180.44,300.86z"/>
			<path class="st3" d="M181.63,294.9c0.24-0.95,0.95-1.43,1.91-1.43c0.95,0.24,1.43,0.95,1.43,1.91c-0.24,0.95-0.95,1.43-1.91,1.43
				S181.63,295.85,181.63,294.9z"/>
			<path class="st3" d="M182.58,288.94c0-0.95,0.95-1.67,1.91-1.43c0.95,0,1.67,0.95,1.43,1.91c0,0.95-0.95,1.67-1.91,1.43
				C183.06,290.61,182.35,289.89,182.58,288.94z"/>
			<path class="st3" d="M182.82,282.98c0-0.95,0.71-1.67,1.67-1.67c0.95,0,1.67,0.71,1.67,1.67c0,0.96-0.72,1.67-1.67,1.67
				C183.54,284.65,182.82,283.93,182.82,282.98z"/>
			<path class="st3" d="M182.82,276.78c0-0.95,0.71-1.67,1.67-1.67c0.95,0,1.67,0.71,1.67,1.67c0,0.95-0.72,1.67-1.67,1.67
				C183.78,278.45,183.06,277.73,182.82,276.78z"/>
			<path class="st3" d="M182.58,270.82c0-0.95,0.48-1.67,1.43-1.91c0.95,0,1.67,0.48,1.91,1.43c0,0.95-0.48,1.67-1.43,1.91
				C183.3,272.49,182.58,271.78,182.58,270.82z"/>
			<path class="st3" d="M181.63,264.86c-0.24-0.95,0.48-1.67,1.43-1.91c0.95-0.24,1.67,0.48,1.91,1.43
				c0.24,0.95-0.48,1.91-1.43,1.91S181.87,265.58,181.63,264.86z"/>
			<path class="st3" d="M180.44,258.9c-0.24-0.95,0.24-1.91,1.19-1.91c0.95-0.24,1.91,0.24,2.15,1.19c0.24,0.95-0.24,1.91-1.19,2.15
				C181.63,260.33,180.68,259.86,180.44,258.9z"/>
			<path class="st3" d="M178.77,252.95c-0.24-0.95,0.24-1.91,1.19-2.15c0.95-0.24,1.91,0.24,2.15,1.19
				c0.24,0.95-0.24,1.91-1.19,2.15C179.96,254.38,179.01,253.9,178.77,252.95z"/>
			<path class="st3" d="M176.62,247.23c-0.24-0.95,0-1.91,0.95-2.15c0.95-0.24,1.91,0,2.15,0.95c0.24,0.95,0,1.91-0.95,2.15
				C178.06,248.65,177.1,248.18,176.62,247.23z"/>
			<path class="st3" d="M174.24,241.74c-0.48-0.95,0-1.91,0.71-2.15c0.95-0.48,1.91,0,2.15,0.71c0.48,0.95,0,1.91-0.71,2.15
				C175.67,242.94,174.72,242.7,174.24,241.74z"/>
			<path class="st3" d="M171.38,236.5c-0.48-0.71-0.24-1.91,0.72-2.38c0.71-0.48,1.91-0.24,2.38,0.71c0.48,0.71,0.24,1.91-0.71,2.38
				C172.81,237.45,171.86,237.21,171.38,236.5z"/>
			<path class="st3" d="M168.28,231.25c-0.48-0.71-0.24-1.91,0.48-2.38c0.72-0.48,1.91-0.24,2.38,0.48
				c0.48,0.71,0.24,1.91-0.48,2.38C169.71,232.21,168.76,231.97,168.28,231.25z"/>
			<path class="st3" d="M164.71,226.25c-0.48-0.71-0.48-1.67,0.24-2.38c0.72-0.48,1.67-0.48,2.38,0.24
				c0.48,0.71,0.48,1.91-0.24,2.38C166.38,227.2,165.19,227.2,164.71,226.25z"/>
			<path class="st3" d="M160.89,221.72c-0.71-0.72-0.48-1.67,0.24-2.38c0.72-0.71,1.67-0.48,2.38,0.24
				c0.71,0.71,0.48,1.67-0.24,2.38C162.56,222.44,161.37,222.44,160.89,221.72z"/>
			<path class="st3" d="M156.6,217.19c-0.71-0.71-0.71-1.67,0-2.38c0.71-0.72,1.67-0.72,2.38,0c0.72,0.71,0.72,1.67,0,2.38
				C158.27,217.91,157.32,217.91,156.6,217.19z"/>
			<path class="st3" d="M152.31,213.14c-0.71-0.72-0.71-1.67-0.24-2.38c0.71-0.71,1.67-0.71,2.38-0.24
				c0.71,0.71,0.71,1.67,0.24,2.38C153.98,213.62,153.03,213.85,152.31,213.14z"/>
			<path class="st3" d="M147.54,209.33c-0.71-0.48-0.95-1.67-0.24-2.38c0.48-0.71,1.67-0.95,2.38-0.24
				c0.71,0.48,0.95,1.67,0.24,2.38C149.21,209.8,148.26,210.04,147.54,209.33z"/>
			<path class="st3" d="M142.54,205.99c-0.71-0.48-0.95-1.43-0.48-2.38c0.48-0.71,1.43-0.95,2.38-0.48
				c0.72,0.48,0.95,1.43,0.48,2.38C144.21,206.23,143.25,206.46,142.54,205.99z"/>
			<path class="st3" d="M137.3,202.89c-0.71-0.48-1.19-1.43-0.71-2.38c0.48-0.71,1.43-1.19,2.38-0.71c0.72,0.48,1.19,1.43,0.72,2.38
				C139.2,202.89,138.01,203.37,137.3,202.89z"/>
			<path class="st3" d="M131.81,200.03c-0.71-0.24-1.19-1.19-0.71-2.15c0.24-0.71,1.19-1.19,2.15-0.71
				c0.95,0.48,1.19,1.43,0.71,2.15C133.72,200.27,132.77,200.51,131.81,200.03z"/>
			<path class="st3" d="M126.33,197.88c-0.95-0.24-1.19-1.19-0.95-2.15c0.24-0.95,1.19-1.43,2.15-0.95
				c0.95,0.24,1.43,1.19,0.95,2.15C128.24,197.65,127.29,198.12,126.33,197.88z"/>
			<path class="st3" d="M120.61,195.74c-0.95-0.24-1.43-1.19-1.19-2.15c0.24-0.71,1.19-1.19,2.15-0.95
				c0.95,0.24,1.43,1.19,1.19,2.15C122.52,195.5,121.56,196.22,120.61,195.74z"/>
			<path class="st3" d="M114.65,194.31c-0.95-0.24-1.43-1.19-1.19-1.91c0.24-0.95,1.19-1.43,1.91-1.19
				c0.95,0.24,1.43,1.19,1.19,1.91C116.56,193.83,115.6,194.55,114.65,194.31z"/>
			<path class="st3" d="M108.69,193.12c-0.95-0.24-1.43-0.95-1.43-1.91c0.24-0.95,0.95-1.67,1.91-1.43
				c0.95,0.24,1.67,0.95,1.43,1.91C110.6,192.64,109.65,193.35,108.69,193.12z"/>
			<path class="st3" d="M102.73,192.4c-0.95,0-1.67-0.95-1.43-1.91c0-0.95,0.95-1.67,1.91-1.43c0.95,0,1.67,0.95,1.43,1.91
				C104.4,191.92,103.69,192.4,102.73,192.4z"/>
		</g>
	</g>
</g>
<rect x="712.7" y="195.26" class="st2" width="320.36" height="172.81"/>
<g class="st0">
	<path class="st3" d="M720.76,197.33h-7.67v-1.97h17.37v1.97h-7.53l-0.03,21.78h-2.1L720.76,197.33z"/>
	<path class="st3" d="M734.18,219.1v-23.75h2.14v10.43h12.96v-10.43h2.14v23.75h-2.14v-11.35h-12.96v11.35H734.18z"/>
	<path class="st3" d="M758.03,219.1v-23.75h14.11v1.97h-11.97v8.52h11.51v1.97h-11.51v9.31h12.47v1.97L758.03,219.1L758.03,219.1z"
		/>
	<path class="st3" d="M796.71,219.6c-6.81,0-10.59-4.97-10.59-12.37s3.78-12.37,10.59-12.37c6.81,0,10.59,4.97,10.59,12.37
		C807.31,214.63,803.52,219.6,796.71,219.6z M796.71,217.62c5.92,0,8.29-5.2,8.29-10.4s-2.37-10.4-8.29-10.4
		c-5.92,0-8.29,5.2-8.29,10.4S790.79,217.62,796.71,217.62z"/>
	<path class="st3" d="M815.04,219.1h-2.14v-23.75h7.76c2.07,0,3.78,0.13,5.59,1.25c1.65,0.99,2.44,2.7,2.44,4.97
		c0,2.57-1.81,4.41-4.57,5.1v0.07c3.03,0.49,3.68,2.53,3.98,5.3c0.43,3.85,0.3,5.63,1.25,7.07h-2.47c-0.56-1.58-0.69-3.26-0.82-4.94
		c-0.49-5.43-0.82-6.38-5.13-6.38h-5.89V219.1L815.04,219.1z M819.61,205.81c3.03,0,6.78-0.2,6.78-4.24c0-4.57-4.28-4.24-6.55-4.24
		h-4.8v8.49L819.61,205.81L819.61,205.81z"/>
	<path class="st3" d="M834.97,219.1v-23.85h2.14v23.85H834.97z"/>
	<path class="st3" d="M861.36,207v11.12c-2.86,1.12-5.46,1.48-8.52,1.48c-6.48,0-10.13-5.07-10.13-12.37
		c0-6.12,3.26-12.37,10.13-12.37c3.95,0,7.99,2.14,8.36,6.35h-2.44c-0.43-3.03-3.09-4.38-5.92-4.38c-5.69,0-7.83,5.46-7.83,10.4
		c0,6.05,2.53,10.4,8.95,10.4c1.78,0,3.59-0.49,5.26-0.99v-7.67h-5.95V207L861.36,207L861.36,207z"/>
	<path class="st3" d="M867.87,219.1v-23.85h2.14v23.85H867.87z"/>
	<path class="st3" d="M876.52,195.35h2.44l13.09,20.89h0.07v-20.89h2.14v23.75h-2.7l-12.83-20.53h-0.06v20.53h-2.14L876.52,195.35
		L876.52,195.35z"/>
	<path class="st3" d="M897.54,219.1l9.41-23.75h2.5l9.47,23.75h-2.34l-2.53-6.42h-11.81l-2.5,6.42H897.54z M913.3,210.72
		l-5.13-13.39l-5.23,13.39H913.3z"/>
	<path class="st3" d="M922.48,219.1v-23.75h2.14v21.78h11.94v1.97L922.48,219.1L922.48,219.1z"/>
</g>
<g class="st0">
	<path class="st3" d="M712.93,268.45l9.41-23.75h2.5l9.47,23.75h-2.34l-2.53-6.41h-11.81l-2.5,6.41H712.93z M728.69,260.06
		l-5.13-13.39l-5.23,13.39H728.69z"/>
	<path class="st3" d="M738.59,244.69v15.36c0.17,4.31,2.63,6.91,6.55,6.91s6.38-2.6,6.55-6.91v-15.36h2.14v15.4
		c-0.07,5.1-2.93,8.85-8.69,8.85c-5.76,0-8.62-3.75-8.68-8.85v-15.4H738.59z"/>
	<path class="st3" d="M763.65,246.67h-7.67v-1.97h17.37v1.97h-7.53l-0.03,21.78h-2.11L763.65,246.67z"/>
	<path class="st3" d="M777.07,268.45v-23.75h2.14v10.43h12.96v-10.43h2.14v23.75h-2.14V257.1h-12.96v11.35H777.07z"/>
	<path class="st3" d="M809.71,268.94c-6.81,0-10.59-4.97-10.59-12.37c0-7.4,3.78-12.37,10.59-12.37c6.81,0,10.59,4.97,10.59,12.37
		C820.3,263.97,816.52,268.94,809.71,268.94z M809.71,266.97c5.92,0,8.29-5.2,8.29-10.4c0-5.2-2.37-10.4-8.29-10.4
		c-5.92,0-8.29,5.2-8.29,10.4C801.42,261.77,803.79,266.97,809.71,266.97z"/>
	<path class="st3" d="M828.03,268.45h-2.14v-23.75h7.76c2.07,0,3.78,0.13,5.59,1.25c1.64,0.99,2.43,2.7,2.43,4.97
		c0,2.57-1.81,4.41-4.57,5.1v0.07c3.03,0.49,3.68,2.53,3.98,5.3c0.43,3.85,0.3,5.63,1.25,7.07h-2.47c-0.56-1.58-0.69-3.26-0.82-4.94
		c-0.49-5.43-0.82-6.38-5.13-6.38h-5.89V268.45L828.03,268.45z M832.6,255.16c3.03,0,6.78-0.2,6.78-4.24c0-4.57-4.28-4.24-6.55-4.24
		h-4.8v8.49L832.6,255.16L832.6,255.16z"/>
	<path class="st3" d="M847.97,268.45V244.6h2.14v23.85H847.97z"/>
	<path class="st3" d="M861.06,246.67h-7.67v-1.97h17.37v1.97h-7.53l-0.03,21.78h-2.11L861.06,246.67z"/>
	<path class="st3" d="M880.24,258.18l-8.75-13.49h2.73l7.27,11.48l7.27-11.48h2.3l-8.69,13.42v10.33h-2.14V258.18L880.24,258.18z"/>
	<path class="st3" d="M913.27,268.94c-6.81,0-10.59-4.97-10.59-12.37c0-7.4,3.78-12.37,10.59-12.37c6.81,0,10.59,4.97,10.59,12.37
		C923.86,263.97,920.08,268.94,913.27,268.94z M913.27,266.97c5.92,0,8.29-5.2,8.29-10.4c0-5.2-2.37-10.4-8.29-10.4
		c-5.92,0-8.29,5.2-8.29,10.4C904.98,261.77,907.34,266.97,913.27,266.97z"/>
	<path class="st3" d="M929.09,244.69h2.44l13.09,20.89h0.06v-20.89h2.14v23.75h-2.7l-12.83-20.53h-0.07v20.53h-2.14L929.09,244.69
		L929.09,244.69z"/>
</g>
<g class="st0">
	<path class="st3" d="M732.07,317.79c-1.02,0-2.93-0.33-4.21,0.03c-0.82,0.26-1.74,0.46-2.44,0.46c-6.81,0-10.59-4.97-10.59-12.37
		c0-7.4,3.78-12.37,10.59-12.37c6.81,0,10.59,4.97,10.59,12.37c0,3.85-1.35,7.8-4.34,10.07l0.07,0.07c1.65-0.26,3.42-0.17,5.17-0.23
		v1.97H732.07z M725.43,316.31c5.92,0,8.29-5.2,8.29-10.4s-2.37-10.4-8.29-10.4c-5.92,0-8.29,5.2-8.29,10.4
		C717.14,311.11,719.51,316.31,725.43,316.31z"/>
	<path class="st3" d="M743.55,294.04v15.36c0.17,4.31,2.63,6.91,6.55,6.91s6.38-2.6,6.55-6.91v-15.36h2.14v15.4
		c-0.07,5.1-2.93,8.85-8.69,8.85c-5.76,0-8.62-3.75-8.68-8.85v-15.4H743.55z"/>
	<path class="st3" d="M765.33,317.79v-23.75h14.11v1.97h-11.98v8.52h11.51v1.97h-11.51v9.31h12.47v1.97L765.33,317.79L765.33,317.79
		z"/>
	<path class="st3" d="M791.06,318.28c-3.78,0-6.97-2.76-7.07-6.68h2.3c0.06,3.65,2.76,4.7,5.95,4.7c2.67,0,5.72-1.55,5.72-4.57
		c0-2.37-1.71-3.49-3.72-4.15c-3.85-1.28-9.7-2.5-9.7-7.63c0-4.15,3.82-6.42,7.57-6.42c3.12,0,7.2,1.09,7.73,5.66h-2.3
		c-0.07-2.93-2.73-3.68-5.17-3.68c-2.47,0-5.53,1.25-5.53,4.15c0,6.74,13.42,3.68,13.42,11.88
		C800.27,316.7,795.83,318.28,791.06,318.28z"/>
	<path class="st3" d="M809.64,296.01h-7.66v-1.97h17.37v1.97h-7.53l-0.03,21.78h-2.11L809.64,296.01z"/>
	<path class="st3" d="M823.33,317.79v-23.85h2.14v23.85H823.33z"/>
	<path class="st3" d="M841.75,318.28c-6.81,0-10.59-4.97-10.59-12.37s3.78-12.37,10.59-12.37c6.81,0,10.59,4.97,10.59,12.37
		S848.56,318.28,841.75,318.28z M841.75,316.31c5.92,0,8.29-5.2,8.29-10.4s-2.37-10.4-8.29-10.4c-5.92,0-8.29,5.2-8.29,10.4
		C833.46,311.11,835.83,316.31,841.75,316.31z"/>
	<path class="st3" d="M857.57,294.04h2.43l13.09,20.89h0.07v-20.89h2.14v23.75h-2.7l-12.83-20.53h-0.07v20.53h-2.14L857.57,294.04
		L857.57,294.04z"/>
	<path class="st3" d="M881.82,317.79v-23.85h2.14v23.85H881.82z"/>
	<path class="st3" d="M890.47,294.04h2.44L906,314.93h0.07v-20.89h2.14v23.75h-2.7l-12.83-20.53h-0.06v20.53h-2.14L890.47,294.04
		L890.47,294.04z"/>
	<path class="st3" d="M931.95,305.68v11.12c-2.86,1.12-5.46,1.48-8.52,1.48c-6.48,0-10.13-5.07-10.13-12.37
		c0-6.12,3.26-12.37,10.13-12.37c3.95,0,7.99,2.14,8.36,6.35h-2.44c-0.43-3.03-3.09-4.38-5.92-4.38c-5.69,0-7.83,5.46-7.83,10.4
		c0,6.05,2.53,10.4,8.95,10.4c1.78,0,3.59-0.49,5.26-0.99v-7.67h-5.95v-1.97H931.95L931.95,305.68z"/>
</g>
<g class="st0">
	<path class="st3" d="M712.93,367.13l9.41-23.75h2.5l9.47,23.75h-2.34l-2.53-6.42h-11.81l-2.5,6.42H712.93z M728.69,358.74
		l-5.13-13.39l-5.23,13.39H728.69z"/>
	<path class="st3" d="M738.59,343.38v15.36c0.17,4.31,2.63,6.91,6.55,6.91s6.38-2.6,6.55-6.91v-15.36h2.14v15.4
		c-0.07,5.1-2.93,8.85-8.69,8.85c-5.76,0-8.62-3.75-8.68-8.85v-15.4H738.59z"/>
	<path class="st3" d="M763.65,345.35h-7.67v-1.97h17.37v1.97h-7.53l-0.03,21.78h-2.11L763.65,345.35z"/>
	<path class="st3" d="M777.07,367.13v-23.75h2.14v10.43h12.96v-10.43h2.14v23.75h-2.14v-11.35h-12.96v11.35H777.07z"/>
	<path class="st3" d="M809.71,367.62c-6.81,0-10.59-4.97-10.59-12.37c0-7.4,3.78-12.37,10.59-12.37c6.81,0,10.59,4.97,10.59,12.37
		C820.3,362.65,816.52,367.62,809.71,367.62z M809.71,365.65c5.92,0,8.29-5.2,8.29-10.4s-2.37-10.4-8.29-10.4
		c-5.92,0-8.29,5.2-8.29,10.4C801.42,360.45,803.79,365.65,809.71,365.65z"/>
	<path class="st3" d="M828.03,367.13h-2.14v-23.75h7.76c2.07,0,3.78,0.13,5.59,1.25c1.64,0.99,2.43,2.7,2.43,4.97
		c0,2.57-1.81,4.41-4.57,5.1v0.07c3.03,0.49,3.68,2.53,3.98,5.3c0.43,3.85,0.3,5.63,1.25,7.07h-2.47c-0.56-1.58-0.69-3.26-0.82-4.93
		c-0.49-5.43-0.82-6.38-5.13-6.38h-5.89V367.13L828.03,367.13z M832.6,353.84c3.03,0,6.78-0.2,6.78-4.24c0-4.57-4.28-4.24-6.55-4.24
		h-4.8v8.49H832.6z"/>
	<path class="st3" d="M847.97,367.13v-23.85h2.14v23.85H847.97z"/>
	<path class="st3" d="M861.06,345.35h-7.67v-1.97h17.37v1.97h-7.53l-0.03,21.78h-2.11L861.06,345.35z"/>
	<path class="st3" d="M880.24,356.87l-8.75-13.49h2.73l7.27,11.48l7.27-11.48h2.3l-8.69,13.42v10.33h-2.14V356.87L880.24,356.87z"/>
</g>
<line class="st1" x1="691.25" y1="195.26" x2="691.25" y2="367.12"/>
</svg>
